/* XPM */
static char *_5340e9e94d74be9a891945271ddb086YrDgIZB9boR8TNNL[] = {
/* columns rows colors chars-per-pixel */
"16 16 163 2 ",
"   c #FDFDFD",
".  c #FEFEFE",
"X  c white",
"o  c #F2F3F4",
"O  c #C7CBCC",
"+  c #ABB1AF",
"@  c #A9AFAC",
"#  c #B8BDBD",
"$  c #E2E5E6",
"%  c #D8DBDC",
"&  c #878A7E",
"*  c #736D4C",
"=  c #6C6242",
"-  c #7C714D",
";  c #6B664C",
":  c #7B7B6A",
">  c #B5BABA",
",  c #FAFBFB",
"<  c #FFFFFE",
"1  c #E2E4E6",
"2  c #7F7D68",
"3  c #89692B",
"4  c #897031",
"5  c #8D7D3D",
"6  c #998A4D",
"7  c #8C8758",
"8  c #897139",
"9  c #84784C",
"0  c #B8BCBC",
"q  c #FEFEFF",
"w  c #FDFDFE",
"e  c #979B98",
"r  c #83682D",
"t  c #6D4C2A",
"y  c #DE8419",
"u  c #CE8A25",
"i  c #B57E37",
"p  c #B78138",
"a  c #715B2F",
"s  c #8B7131",
"d  c #7F7B62",
"f  c #E7E9EB",
"g  c #ECEEF0",
"h  c #68645C",
"j  c #5C492F",
"k  c #503B36",
"l  c #D87213",
"z  c #7C6728",
"x  c #383E3C",
"c  c #3D423D",
"v  c #343E42",
"b  c #4B493F",
"n  c #625339",
"m  c #BDC1C4",
"M  c #E0E3E6",
"N  c #5B4C48",
"B  c #6C472C",
"V  c #40292B",
"C  c #CF5B11",
"Z  c #D79123",
"A  c #C58C2F",
"S  c #C88F32",
"D  c #644E2B",
"F  c #453F37",
"G  c #6A4A2E",
"H  c #A4A9AF",
"J  c #E7EAEB",
"K  c #52484F",
"L  c #43231F",
"P  c #3C2324",
"I  c #C64B0D",
"U  c #884A17",
"Y  c #48241E",
"T  c #4C271E",
"R  c #302724",
"E  c #3D2D26",
"W  c #472A29",
"Q  c #AFB5BA",
"!  c #F9FAFA",
"~  c #75747B",
"^  c #562E1D",
"/  c #41201E",
"(  c #BC3F0C",
")  c #B26B14",
"_  c #885A1C",
"`  c #8B5F1E",
"'  c #483720",
"]  c #50311C",
"[  c #554342",
"{  c #D7DBDE",
"}  c #C5CACE",
"|  c #5C413C",
" . c #712C17",
".. c #7A1A12",
"X. c #933313",
"o. c #9F3F14",
"O. c #993A14",
"+. c #833B15",
"@. c #6C3920",
"#. c #8B8E94",
"$. c #FBFCFC",
"%. c #FEFEFD",
"&. c #AEB2B8",
"*. c #4E3B43",
"=. c #491C1E",
"-. c #431F1C",
";. c #562D1C",
":. c #451A1B",
">. c #4F282C",
",. c #7C7C84",
"<. c #EFF0F1",
"1. c #FFFEFE",
"2. c gray97",
"3. c #E8E9EB",
"4. c #F0F1F1",
"5. c #CFD3D6",
"6. c #868890",
"7. c #53525D",
"8. c #424450",
"9. c #6A6A73",
"0. c #A5ABB1",
"q. c #E7E9EA",
"w. c #EAEBEC",
"e. c #F9F9F9",
"r. c #BFC3C7",
"t. c #6A737D",
"y. c #9BA1A8",
"u. c #848B92",
"i. c #899097",
"p. c #7F878F",
"a. c #57626C",
"s. c #838B93",
"d. c #A5ABB0",
"f. c #878F97",
"g. c #666F78",
"h. c #B6BABF",
"j. c #B7BBC0",
"k. c #606A74",
"l. c #9CA2A8",
"z. c #848B93",
"x. c #889097",
"c. c #7D858D",
"v. c #535D68",
"b. c #737B84",
"n. c #828A92",
"m. c #EEEFF0",
"M. c #CFD2D5",
"N. c #DFE1E3",
"B. c #D6D9DB",
"V. c #D0D3D6",
"C. c #BBC0C4",
"Z. c #ADB3B8",
"A. c #B6BBC0",
"S. c #B4B9BD",
"D. c #DDDFE1",
"F. c #EBECED",
"G. c #ECEDEE",
"H. c #FDFEFD",
"J. c #FEFFFE",
"K. c #EEF0F1",
"L. c #E5E7E8",
"P. c #E3E5E6",
"I. c #E1E3E5",
/* pixels */
"          . X X X X X           ",
"        X o O + @ # $ .         ",
"      X % & * = - ; : > ,       ",
"    < 1 2 3 4 5 6 7 8 9 0 q     ",
"    w e r t y u i p a s d f .   ",
"  . g h j k l z x c v b n m X   ",
"  X M N B V C Z A S D F G H X   ",
"  . J K L P I U Y T R E W Q X   ",
"    ! ~ ^ / ( ) _ ` ' ] [ { X   ",
"    X } |  ...X.o.O.+.@.#.$.    ",
"    %.< &.*.=.-.;.:.>.,.<.1.    ",
"    2.3.4.5.6.7.8.9.0.q.w.e.    ",
"  X r.t.y.u.i.p.a.s.d.f.g.h.X   ",
"  X j.k.l.z.x.c.v.b.l.n.t.h.X   ",
"  . m.M.N.B.V.C.Z.A.S.D.F.G..   ",
"  H.J.X X K.L.P.J $ I.! X J.    "
};
