/* XPM */
static char *_ba795d6a7e846dcec12bd8f1c70015e3htWGBnUPgbsGPKE[] = {
/* columns rows colors chars-per-pixel */
"64 64 228 2 ",
"   c #18131F",
".  c #27151F",
"X  c #3A161D",
"o  c #051324",
"O  c #0A1525",
"+  c #0B1827",
"@  c #09192B",
"#  c #0C1A2B",
"$  c #171725",
"%  c #1E1621",
"&  c #131A23",
"*  c #1C1D23",
"=  c #121E2D",
"-  c #121F31",
";  c #241D22",
":  c #271B27",
">  c #391922",
",  c #1A2227",
"<  c #13212F",
"1  c #0E2135",
"2  c #152332",
"3  c #1A2533",
"4  c #1C2935",
"5  c #162739",
"6  c #1C2B3C",
"7  c #232223",
"8  c #2A2727",
"9  c #362A25",
"0  c #262C35",
"q  c #222D3B",
"w  c #24313E",
"e  c #2B353A",
"r  c #363430",
"t  c #44181B",
"y  c #581518",
"u  c #7D110E",
"i  c #661414",
"p  c #7A1311",
"a  c #48271E",
"s  c #522F1D",
"d  c #712218",
"f  c #67371C",
"g  c #773C19",
"h  c #451E21",
"j  c #433424",
"k  c #463824",
"l  c #54372C",
"z  c #3E4538",
"x  c #59451D",
"c  c #6B4B1A",
"v  c #7B4E1A",
"b  c #6B541D",
"n  c #534A2D",
"m  c #454A38",
"M  c #735029",
"N  c #746B30",
"B  c #1F3041",
"V  c #202E40",
"C  c #253442",
"Z  c #2A3543",
"A  c #2C3946",
"S  c #273849",
"D  c #2D3B4A",
"F  c #3A3A40",
"G  c #313E4A",
"H  c #34424D",
"J  c #3B4648",
"K  c #344351",
"L  c #3A4552",
"P  c #3E4955",
"I  c #434C4A",
"U  c #4B554A",
"Y  c #53594C",
"T  c #434E57",
"R  c #485357",
"E  c #545C56",
"W  c #6A5E49",
"Q  c #5D664F",
"!  c #5A6459",
"~  c #66664A",
"^  c #70744A",
"/  c #636959",
"(  c #4C5763",
")  c #555F69",
"_  c #56616A",
"`  c #5A636D",
"'  c #5D6771",
"]  c #656E63",
"[  c #6C7466",
"{  c #747967",
"}  c #636D76",
"|  c #677179",
" . c #6B737C",
".. c #88150F",
"X. c #98190E",
"o. c #871610",
"O. c #961F12",
"+. c #A80C07",
"@. c #A9170C",
"#. c #B81708",
"$. c #872614",
"%. c #962612",
"&. c #B72A0D",
"*. c #A73012",
"=. c #C41D09",
"-. c #CB2309",
";. c #CB290A",
":. c #CE2E0B",
">. c #C7370B",
",. c #C2320E",
"<. c #D8360A",
"1. c #8D4C18",
"2. c #B15214",
"3. c #AB6816",
"4. c #AC7415",
"5. c #BA7018",
"6. c #996822",
"7. c #8C762D",
"8. c #AB7628",
"9. c #CA470C",
"0. c #D8480C",
"q. c #DB560D",
"w. c #D55B0F",
"e. c #D25610",
"r. c #E4470C",
"t. c #E54B0C",
"y. c #E7560D",
"u. c #EC580D",
"i. c #C66615",
"p. c #D37215",
"a. c #E9670D",
"s. c #F3690B",
"d. c #F4780C",
"f. c #E96C11",
"g. c #EA7613",
"h. c #F47B14",
"j. c #E47721",
"k. c #7A826A",
"l. c #7A8273",
"z. c #AC8A1C",
"x. c #8B813B",
"c. c #A88F29",
"v. c #A3983D",
"b. c #D1881A",
"n. c #FA870C",
"m. c #F9940C",
"M. c #FB9C0B",
"N. c #EB8F15",
"B. c #F68718",
"V. c #F49815",
"C. c #FCA40D",
"Z. c #F7A617",
"A. c #FAB818",
"S. c #D2972C",
"D. c #F19324",
"F. c #CFA931",
"G. c #EFAF2E",
"H. c #F6AA26",
"J. c #F7BA27",
"K. c #FDC31A",
"L. c #FCC729",
"P. c #FAD02B",
"I. c #F8C637",
"U. c #FDD634",
"Y. c #FFE23C",
"T. c #8E8650",
"R. c #999559",
"E. c #A39B44",
"W. c #A99C58",
"Q. c #AAA34C",
"!. c #A5A558",
"~. c #868D73",
"^. c #8A9074",
"/. c #949879",
"(. c #A7A867",
"). c #A7AD78",
"_. c #CBAF58",
"`. c #E2B046",
"'. c #F2C750",
"]. c #FFE848",
"[. c #FFF058",
"{. c #FFDA64",
"}. c #FDEE68",
"|. c #FCED76",
" X c #6E7881",
".X c #737C85",
"XX c #777F88",
"oX c #778188",
"OX c #7B838B",
"+X c #899186",
"@X c #848C93",
"#X c #898F96",
"$X c #8C949B",
"%X c #91989F",
"&X c #A5AA86",
"*X c #949BA2",
"=X c #989EA5",
"-X c #9AA1A7",
";X c #9EA4AA",
":X c #A2A7AD",
">X c #A3A9AE",
",X c #A7ADB2",
"<X c #ACB1B5",
"1X c #AFB4B9",
"2X c #B3B8BC",
"3X c #FFFF88",
"4X c #D1D3A0",
"5X c #FFFFA4",
"6X c #B7BCC0",
"7X c #BABEC2",
"8X c #BDC2C5",
"9X c #C1C7CA",
"0X c #C6CACD",
"qX c #CBCED2",
"wX c #CED2D5",
"eX c #D1D5D7",
"rX c #D6D9DB",
"tX c #DCDEE0",
"yX c #DFE1E3",
"uX c #E2E4E5",
"iX c #E5E7E8",
"pX c #E7E9EA",
"aX c #EAECED",
"sX c #EEEFF0",
"dX c #EFF0F1",
"fX c #F3F4F4",
"gX c #F7F7F8",
"hX c #FDFDFD",
/* pixels */
"hXhXhXhXhXhXhXhXhXhXhXhXhXhXhXhXhXhXhXhXhXhXhXhXhXhXhXhXhXhXhXhXhXhXhXhXhXhXhXhXhXhXhXhXhXhXhXhXhXhXhXhXhXhXhXhXhXhXhXhXhXhXhXhX",
"hXhXhXhXhXhXhXhXhXhXhXhXhXhXhXhXhXhXhXhXhXhXhXhXhXhXhXhXhXhXhXhXhXhXhXhXhXhXhXhXhXhXhXhXhXhXhXhXhXhXhXhXhXhXhXhXhXhXhXhXhXhXhXhX",
"hXhXhXhXhXhXhXhXhXhXhXhXhXhXhXhXhXhXhXhXhXhXhXhXhXhXhXhXhXhXhXhXhXhXhXhXhXhXhXhXhXhXhXhXhXhXhXhXhXhXhXhXhXhXhXhXhXhXhXhXhXhXhXhX",
"hXhXhXhXhXhXhXhXhXhXhXhXhXhXhXhXhXhXhXhXhXhXhXhXhXhXhXhXhXhXhXhXhXhXhXhXhXhXhXhXhXhXhXhXhXhXhXhXhXhXhXhXhXhXhXhXhXhXhXhXhXhXhXhX",
"hXhXhXhXhXhXhXhXhXhXhXhXhXhXhXhXhXhXhXhXhXhXhXhXhXhXhXhXhXhXhXhXhXhXhXhXhXhXhXhXhXhXhXhXhXhXhXhXhXhXhXhXhXhXhXhXhXhXhXhXhXhXhXhX",
"hXhXhXhXhXhXhXhXhXhXhXhXhXhXhXhXhXhXhXhXhXhXhXhXhXhXhXhXhXgXdXiXuXuXaXfXgXhXhXhXhXhXhXhXhXhXhXhXhXhXhXhXhXhXhXhXhXhXhXhXhXhXhXhX",
"hXhXhXhXhXhXhXhXhXhXhXhXhXhXhXhXhXhXhXhXhXhXhXhXhXgXrX>X.X( K A C C D P ` #X7XpXhXhXhXhXhXhXhXhXhXhXhXhXhXhXhXhXhXhXhXhXhXhXhXhX",
"hXhXhXhXhXhXhXhXhXhXhXhXhXhXhXhXhXhXhXhXhXhXhXaX,X) q 3 H E [ ~././.l.] I e 3 G OXwXhXhXhXhXhXhXhXhXhXhXhXhXhXhXhXhXhXhXhXhXhXhX",
"hXhXhXhXhXhXhXhXhXhXhXhXhXhXhXhXhXhXhXhXhXfX,XP 3 I k./.~.[ ! ! 4X4X! ! { /.+X] w 6  .eXhXhXhXhXhXhXhXhXhXhXhXhXhXhXhXhXhXhXhXhX",
"hXhXhXhXhXhXhXhXhXhXhXhXhXhXhXhXhXhXhXhXeX` 2 U ^.~.! Y ^ R.~ , _.&X3 T.T.Q R ] +Xk.e w %XfXhXhXhXhXhXhXhXhXhXhXhXhXhXhXhXhXhXhX",
"hXhXhXhXhXhXhXhXhXhXhXhXhXhXhXhXhXhXhX<XZ e ~.k.U ^ Q.`.S.8.r v I.4XP M S.`._.R.Y ! /./ < ` yXhXhXhXhXhXhXhXhXhXhXhXhXhXhXhXhXhX",
"hXhXhXhXhXhXhXhXhXhXhXhXhXhXhXhXhXgX=X3 U ^.Y N F.G.3.f r e = 3.C.'./ < e j v S.`.R.U k.^.0 T eXhXhXhXhXhXhXhXhXhXhXhXhXhXhXhXhX",
"hXhXhXhXhXhXhXhXhXhXhXhXhXhXhXhXhX=X2 E { m v.S.3.j 4 H R E 4 s w.i.9 A E T Z 8 v S._.~ Q /.e L rXhXhXhXhXhXhXhXhXhXhXhXhXhXhXhX",
"hXhXhXhXhXhXhXhXhXhXhXhXhXhXhXhX<X3 Y [ m F.8.8 & @ < 2 2 2 # + : ; + < 2 2 2 # + 7 x F.T.Y /.e R pXhXhXhXhXhXhXhXhXhXhXhXhXhXhX",
"hXhXhXhXhXhXhXhXhXhXhXhXhXhXhXeXZ I [ m S.h.f r E.!.!.!.!.!.(.(.(.(.).).).).).&X&X~ ; i.H.x.Y ^.3 .XgXhXhXhXhXhXhXhXhXhXhXhXhXhX",
"hXhXhXhXhXhXhXhXhXhXhXhXhXhXfX_ 0 { z S.V.Z.M k V.L.P.P.U.Y.].].}.3X3X3X3X5X5X5X{.c.8 F.H.G.N / { 2 <XhXhXhXhXhXhXhXhXhXhXhXhXhX",
"hXhXhXhXhXhXhXhXhXhXhXhXhXhX>X< / z c.A.Z.3.8 k d.n.Z.A.P.U.U.].}.}.}.|.|.|.|.'.C.z.& c S.L.I.n { I L pXhXhXhXhXhXhXhXhXhXhXhXhX",
"hXhXhXhXhXhXhXhXhXhXhXhXhXaXL J E N L.V.1.0 2 s s.s.B.B.g.h.h.h.B.B.B.B.B.B.B.n.C.z.= w j p.P.F.m { 3 *XhXhXhXhXhXhXhXhXhXhXhXhX",
"hXhXhXhXhXhXhXhXhXhXhXhXhX:X< ! m F.V.g 6 P w a s.s.V.L.h.q.e.w.w.w.w.w.w.w.w.w.g.6.= T H 9 i.L.7.E U L aXhXhXhXhXhXhXhXhXhXhXhX",
"hXhXhXhXhXhXhXhXhXhXhXhXfX( e I 7.Z.1.4 T P 6 a a.u.B.P.J.v ; ; ; ; ; ; ; ; ; ; ; * = P / J 9 b.G.m ] 3 <XhXhXhXhXhXhXhXhXhXhXhX",
"hXhXhXhXhXhXhXhXhXhXhXhXeX4 R z b.w.8 J W K 6 a u.y.B.P.K.b # w C C C C C C C C C C S T R.^ 6 1.Z.N E e | hXhXhXhXhXhXhXhXhXhXhX",
"hXhXhXhXhXhXhXhXhXhXhXhX-X< R x g.f 4 S D D 5 a y.t.B.L.A.b - D ~ Y K I L K ~ W K I K H P H S 8 i.b.I R G aXhXhXhXhXhXhXhXhXhXhX",
"hXhXhXhXhXhXhXhXhXhXhXhX| q J 1.g < B ~ R.I 2 a t.r.h.K.A.b # C l F S S S S F F S S S D H Y D 6 9 5.m E 4 0XhXhXhXhXhXhXhXhXhXhX",
"hXhXhXhXhXhXhXhXhXhXhXfXT A e s 9 m 6 6.D.n 1 a 0.<.g.K.A.b O + + + + + + + + + + # 2 S J M A G m a j E 3 >XhXhXhXhXhXhXhXhXhXhX",
"hXhXhXhXhXhXhXhXhXhXhXaXG G 4 & 6.^ 1 r l w 1 a <.<.g.A.A.F.v.v.v.E.E.E.E.Q.Q.!.Q.N + 6 C C 6 C (.k + R 4 #XhXhXhXhXhXhXhXhXhXhX",
"hXhXhXhXhXhXhXhXhXhXhXuXA H 2 s B.W.4 2 5 5 1 a <.<.f.A.L.U.Y.Y.].].].].].[.[.[.J.4.+ 6 6 6 2 J '.5.* J q OXhXhXhXhXhXhXhXhXhXhX",
"hXhXhXhXhXhXhXhXhXhXhXyXC G 3 *.d.G.T.3 r m # a <.:.q.Z.J.J.J.J.J.I.I.I.I.I.I.H.n.4.+ w m 5 m _.H.d.a H q .XhXhXhXhXhXhXhXhXhXhX",
"hXhXhXhXhXhXhXhXhXhXhXuXZ D 3 %.r.y.1.= r l # t :.;.q.g.0.r.t.t.t.t.t.y.y.y.y.u.n.4.+ 0 M 2 k p.s.t.t H 4 XXhXhXhXhXhXhXhXhXhXhX",
"hXhXhXhXhXhXhXhXhXhXhXpXD S 2 t #.@.% + # # @ t ;.-.q.C.a.>.&.,.,.,.,.,.,.,.,.,.e.6.+ 2 - # O y <.%.$ H 5 #XhXhXhXhXhXhXhXhXhXhX",
"hXhXhXhXhXhXhXhXhXhXhXfXP w 6 O i y o + + + O t ;.=.q.C.M.v % % % % % ; ; % % % % * O # = = + % %.. + L 2 ;XhXhXhXhXhXhXhXhXhXhX",
"hXhXhXhXhXhXhXhXhXhXhXgX' 5 C > ; . O x R.e o t -.=.q.M.C.c o o , , o o o 7 + o o o O , T.7.= + . X : H 2 8XhXhXhXhXhXhXhXhXhXhX",
"hXhXhXhXhXhXhXhXhXhXhXhX$X# S y d O o g j.l o X =.#.0.M.M.c o o j 9 o O O l 7 o o o o 7 p.i.* o % $.0 S Z yXhXhXhXhXhXhXhXhXhXhX",
"hXhXhXhXhXhXhXhXhXhXhXhX9X2 S > *.9 o % t $ o X #.#.0.M.M.c o o o o o o o O o o o o o O X > O O g $.C 4 ) gXhXhXhXhXhXhXhXhXhXhX",
"hXhXhXhXhXhXhXhXhXhXhXhXaXL 4 q $.2.7 O 7 O o X #.+.9.M.m.1.9 j j j j j j j j j k 8 O o O o o x 9.h D = =XhXhXhXhXhXhXhXhXhXhXhX",
"hXhXhXhXhXhXhXhXhXhXhXhXhX#X+ S > 9.3.7 & ; + X #.+.9.m.m.V.V.V.Z.Z.Z.Z.Z.Z.A.J.H.3.O O ; O x p.%.0 w C rXhXhXhXhXhXhXhXhXhXhXhX",
"hXhXhXhXhXhXhXhXhXhXhXhXhXrXw 4 4 p a.5.9 O o X @.+.9.m.m.M.M.C.Z.Z.C.C.A.J.L.Z.s.3.O o & b N.9.> S # .XhXhXhXhXhXhXhXhXhXhXhXhX",
"hXhXhXhXhXhXhXhXhXhXhXhXhXhXOX+ C : *.g.b.b , X +.+.#.0.0.q.y.y.y.y.y.a.a.a.y.t.u.3.& k 4.V.q.i q 6 w eXhXhXhXhXhXhXhXhXhXhXhXhX",
"hXhXhXhXhXhXhXhXhXhXhXhXhXhXuXK = V > &.a.g.f X +.+.#.#.#.=.=.=.-.-.-.-.-.-.=.-.u.3.7 i.d.y...8 C + $XhXhXhXhXhXhXhXhXhXhXhXhXhX",
"hXhXhXhXhXhXhXhXhXhXhXhXhXhXhX2X2 5 6 t &.y.f ; p u u u u o.o.o.o.o.o.o.o.o.....%.g ; i.y.O.: S + ( aXhXhXhXhXhXhXhXhXhXhXhXhXhX",
"hXhXhXhXhXhXhXhXhXhXhXhXhXhXhXhX#X+ 5 6 t &.$.$ $ O O O O O O O & & O O O O O O O $ a >...: C = A wXhXhXhXhXhXhXhXhXhXhXhXhXhXhX",
"hXhXhXhXhXhXhXhXhXhXhXhXhXhXhXhXfX.X+ 5 6 > ..X.O.a O o o o o x F.c.8 o o o o ; d @.@.p : C - q 6XhXhXhXhXhXhXhXhXhXhXhXhXhXhXhX",
"hXhXhXhXhXhXhXhXhXhXhXhXhXhXhXhXhXfX X+ 2 6 : i @.>.1.s * O O 2.h.n.c o & 9 g 2.:.X.t 4 C # q 1XhXhXhXhXhXhXhXhXhXhXhXhXhXhXhXhX",
"hXhXhXhXhXhXhXhXhXhXhXhXhXhXhXhXhXhXfX#X2 + 6 5 : i X.&.*.d . d :.>.t t %.&.&.X.y : B 4 O H 8XhXhXhXhXhXhXhXhXhXhXhXhXhXhXhXhXhX",
"hXhXhXhXhXhXhXhXhXhXhXhXhXhXhXhXhXhXhXhX2XL O 2 6 5 : t i ..y $ t X   p u y > 3 6 6 # = } rXhXhXhXhXhXhXhXhXhXhXhXhXhXhXhXhXhXhX",
"hXhXhXhXhXhXhXhXhXhXhXhXhXhXhXhXhXhXhXhXhXuX@Xw O 1 5 6 5 3 = + # # = * 5 6 6 5 # + P ,XfXhXhXhXhXhXhXhXhXhXhXhXhXhXhXhXhXhXhXhX",
"hXhXhXhXhXhXhXhXhXhXhXhXhXhXhXhXhXhXhXhXhXhXhXrX@XH = O # 2 5 4 6 6 6 5 2 + O 3 ( ;XaXhXhXhXhXhXhXhXhXhXhXhXhXhXhXhXhXhXhXhXhXhX",
"hXhXhXhXhXhXhXhXhXhXhXhXhXhXhXhXhXhXhXhXhXhXhXhXhXaX2XXXR A 5 2 = = 2 q H ` $XqXfXhXhXhXhXhXhXhXhXhXhXhXhXhXhXhXhXhXhXhXhXhXhXhX",
"hXhXhXhXhXhXhXhXhXhXhXgXgXgXgXgXgXhXhXgXgXhXhXhXhXhXhXhXfXiXeX9X7X8X0XrXaXhXhXhXhXgXgXgXhXhXhXgXgXgXgXhXhXhXhXhXhXhXhXhXhXhXhXhX",
"hXhXhXhXhXhXhXhXhXhXuX| ) ) ) ) _ 9XdX .` wXhXhXhXhXaX.X_ rXgX@X_ ` _ ) ' *XaXhX8X` _ .XfXrX} _ _ _ _  .2XgXhXhXhXhXhXhXhXhXhXhX",
"hXhXhXhXhXhXhXhXhXhXwX5 o o + + + :XiXw o P rXhXhXfX .o + 7XfXL o O O O o O .XhX-Xo o D aX9X# o o + O o 2 >XhXhXhXhXhXhXhXhXhXhX",
"hXhXhXhXhXhXhXhXhXhXeX5 4 >X7X7X7XpXuXC o o ( uXgXOX+ o # 7XfXP O @X7X7XOXO D aXiX6X2X0XhX9X# w ,X7X7X .o T fXhXhXhXhXhXhXhXhXhX",
"hXhXhXhXhXhXhXhXhXhXeX5 2 OX$X*XaXhXuXC + 6 o ` OX+ 2 2 # 7XfXP O | *X*X} O ) fXeX$X$X>XgX9X# A eXiXpX*XO P dXhXhXhXhXhXhXhXhXhX",
"hXhXhXhXhXhXhXhXhXhXeX4 o o o 2 qXhXuXC 5 =XG o + 5 *XL + 7XfXP o o o o o + *XhX=Xo o S aX0X< + q w C 2 + #XhXhXhXhXhXhXhXhXhXhX",
"hXhXhXhXhXhXhXhXhXhXeX5 5 %X,X<XfXhXuXC 5 wX8Xq = *XdXL + 8XfXP O .X,X,X.X+ H pXrX-X-X1XgX9X< = L H + O .XfXhXhXhXhXhXhXhXhXhXhX",
"hXhXhXhXhXhXhXhXhXhXeX5 5 %X,X>X>XyXuXC 2 wXhX2X;XgXdXL + 7XfXP O .X<X<XOX+ q tXuX<X,X7XhX9X= D yXaX` o ' fXhXhXhXhXhXhXhXhXhXhX",
"hXhXhXhXhXhXhXhXhXhXeX5 o o o o o ;XiXw 2 wXhXhXhXhXsXK o 7XfXL o o o o o +  .hX=Xo o D aX9X+ A aXhXeXZ O *XhXhXhXhXhXhXhXhXhXhX",
"hXhXhXhXhXhXhXhXhXhXaX@X.X.X.X.XXXwXfX$X@XpXhXhXhXhXfX*XOXtXgX=X.X.X.X.XOX,XdXhXqX.X.X$XfXuXOX$XfXhXhX2X.X;XgXhXhXhXhXhXhXhXhXhX",
"hXhXhXhXhXhXhXhXhXhXhXhXhXhXhXhXhXhXhXhXhXhXfXaXgXhXgXhXgXhXgXfXhXhXgXhXhXfXfXhXhXgXhXgXhXhXhXhXhXhXhXhXhXhXhXhXhXhXhXhXhXhXhXhX",
"hXhXhXhXhXhXhXhXhXhXhXhXhXhXhXhXhXhXhXhXhXfX X.XtXyX-X0X,XhX;X| eXfX%XfX0X XOXaXdX.X2X=XgXhXhXhXhXhXhXhXhXhXhXhXhXhXhXhXhXhXhXhX",
"hXhXhXhXhXhXhXhXhXhXhXhXhXhXhXhXhXhXhXhXhXaX( OXsXrX.X,X$XhX;X` 2XsX XdX$X>XoX9XaXR R | gXhXhXhXhXhXhXhXhXhXhXhXhXhXhXhXhXhXhXhX",
"hXhXhXhXhXhXhXhXhXhXhXhXhXhXhXhXhXhXhXhXhXdX$XiXhXfX@X .0XhX<X} 1XfX*XfX0X .OXaXaX%X>X#XhXhXhXhXhXhXhXhXhXhXhXhXhXhXhXhXhXhXhXhX",
"hXhXhXhXhXhXhXhXhXhXhXhXhXhXhXhXhXhXhXhXhXhXgXhXhXhXfXdXhXhXgXdXhXhXgXhXhXdXfXhXhXfXhXgXhXhXhXhXhXhXhXhXhXhXhXhXhXhXhXhXhXhXhXhX",
"hXhXhXhXhXhXhXhXhXhXhXhXhXhXhXhXhXhXhXhXhXhXhXhXhXhXhXhXhXhXhXhXhXhXhXhXhXhXhXhXhXhXhXhXhXhXhXhXhXhXhXhXhXhXhXhXhXhXhXhXhXhXhXhX",
"hXhXhXhXhXhXhXhXhXhXhXhXhXhXhXhXhXhXhXhXhXhXhXhXhXhXhXhXhXhXhXhXhXhXhXhXhXhXhXhXhXhXhXhXhXhXhXhXhXhXhXhXhXhXhXhXhXhXhXhXhXhXhXhX"
};
