/* XPM */
static char *_0b098f518484f98ee7f3c4a9d1dda2bIWCnE7P9dzEbJC7e[] = {
/* columns rows colors chars-per-pixel */
"32 32 188 2 ",
"   c #2D161F",
".  c #3A1B1E",
"X  c #372F1F",
"o  c #031224",
"O  c #0E1928",
"+  c #171C28",
"@  c #241B22",
"#  c #2A1E2B",
"$  c #351E25",
"%  c #1C2125",
"&  c #16212C",
"*  c #1C2331",
"=  c #1B2633",
"-  c #1D2A3A",
";  c #292824",
":  c #392326",
">  c #362B25",
",  c #363122",
"<  c #232431",
"1  c #2A2B33",
"2  c #322E37",
"3  c #26323C",
"4  c #353636",
"5  c #323739",
"6  c #4D1319",
"7  c #49181A",
"8  c #5E1C1E",
"9  c #681B19",
"0  c #751D15",
"q  c #48251D",
"w  c #57241A",
"e  c #5A3E1C",
"r  c #66231B",
"t  c #722417",
"y  c #7B2415",
"u  c #60351B",
"i  c #73331D",
"p  c #7F3C19",
"a  c #402F2D",
"s  c #502C29",
"d  c #473729",
"f  c #503E30",
"g  c #662E22",
"h  c #68491E",
"j  c #5A4728",
"k  c #4B453A",
"l  c #544734",
"z  c #5E5E3F",
"x  c #664825",
"c  c #755029",
"v  c #6A5230",
"b  c #765D35",
"n  c #7D6539",
"m  c #7A703C",
"M  c #263342",
"N  c #2B3846",
"B  c #2C3A46",
"V  c #323D44",
"C  c #323E4B",
"Z  c #3A4346",
"A  c #3A4549",
"S  c #394653",
"D  c #3D4A56",
"F  c #494B44",
"G  c #4B534E",
"H  c #585948",
"J  c #464F50",
"K  c #414E5A",
"L  c #46515A",
"P  c #525C55",
"I  c #715E40",
"U  c #586157",
"Y  c #56615E",
"T  c #75724A",
"R  c #696D53",
"E  c #666D5B",
"W  c #7A7A57",
"Q  c #4A5661",
"!  c #4E5964",
"~  c #515D68",
"^  c #586167",
"/  c #5A646E",
"(  c #5E6871",
")  c #626C6B",
"_  c #626C73",
"`  c #666E78",
"'  c #6A7472",
"]  c #67717A",
"[  c #6B737D",
"{  c #9E0E09",
"}  c #861F13",
"|  c #A8140A",
" . c #B71E0A",
".. c #853718",
"X. c #9B3816",
"o. c #BD2409",
"O. c #CB330B",
"+. c #CC360B",
"@. c #814119",
"#. c #914F18",
"$. c #A15916",
"%. c #B65913",
"&. c #B07117",
"*. c #B97718",
"=. c #875C23",
"-. c #926F2A",
";. c #8D7839",
":. c #937437",
">. c #A87823",
",. c #D9450D",
"<. c #C55F0F",
"1. c #DC510C",
"2. c #E25E0C",
"3. c #D4670E",
"4. c #CB7815",
"5. c #DE7017",
"6. c #EA750C",
"7. c #E46D11",
"8. c #9A7C41",
"9. c #AE881C",
"0. c #9B843E",
"q. c #B38327",
"w. c #B18E32",
"e. c #BFA132",
"r. c #D68F1E",
"t. c #CD961E",
"y. c #F4910F",
"u. c #F38A1A",
"i. c #E89817",
"p. c #FAA51B",
"a. c #D19C2E",
"s. c #F88C22",
"d. c #F69126",
"f. c #C5AD3C",
"g. c #C5B33C",
"h. c #EAAF24",
"j. c #FCA926",
"k. c #FFB73E",
"l. c #948752",
"z. c #ACAA7B",
"x. c #C5B847",
"c. c #D0B24A",
"v. c #FFBC49",
"b. c #C5C971",
"n. c #6E7780",
"m. c #737C84",
"M. c #778089",
"N. c #7C848B",
"B. c #80878F",
"V. c #838A92",
"C. c #889097",
"Z. c #8C949B",
"A. c #91979E",
"S. c #92999F",
"D. c #959CA3",
"F. c #989DA2",
"G. c #9AA0A6",
"H. c #9DA3A9",
"J. c #A6ACB1",
"K. c #A9AFB4",
"L. c #ACB1B6",
"P. c #AEB3B8",
"I. c #B1B6BA",
"U. c #B3B8BC",
"Y. c #C8CB83",
"T. c #BABEC2",
"R. c #BDC2C6",
"E. c #C2C6CA",
"W. c #C4C9CC",
"Q. c #C8CCCF",
"!. c #CACED1",
"~. c #CDD1D3",
"^. c #D1D4D7",
"/. c #D4D7D9",
"(. c #D6D8DB",
"). c #DADCDF",
"_. c #DDDFE2",
"`. c #DFE1E2",
"'. c #E1E3E5",
"]. c #E5E7E9",
"[. c #E6E8EA",
"{. c #EBECED",
"}. c #EEEFF0",
"|. c #EFF0F1",
" X c #F3F4F5",
".X c #F7F7F8",
"XX c #F7F8F8",
"oX c #FDFDFD",
/* pixels */
"oXoXoXoXoXoXoXoXoXoXoXoXoXoXoXoXoXoXoXoXoXoXoXoXoXoXoXoXoXoXoXoX",
"oXoXoXoXoXoXoXoXoXoXoXoXoXoXoXoXoXoXoXoXoXoXoXoXoXoXoXoXoXoXoXoX",
"oXoXoXoXoXoXoXoXoXoXoXoXoXoX|.'._.]. XoXoXoXoXoXoXoXoXoXoXoXoXoX",
"oXoXoXoXoXoXoXoXoXoXoX|.U.N._ ) ' ) ' V.E.XXoXoXoXoXoXoXoXoXoXoX",
"oXoXoXoXoXoXoXoXoXoXR._ U R W R z.E W E Y m.^.oXoXoXoXoXoXoXoXoX",
"oXoXoXoXoXoXoXoXXXF.P T 0.:.b x c.H n 8.l.E Y U.oXoXoXoXoXoXoXoX",
"oXoXoXoXoXoXoXoXF.G T -.j 5 B 4 c 4 V 4 v ;.W P T.oXoXoXoXoXoXoX",
"oXoXoXoXoXoXoXT.J m r.x w.f.x.x.b.b.Y.Y.l.=.a.T ^ ).oXoXoXoXoXoX",
"oXoXoXoXoXoX}./ z t.-.d 6.p.j.j.k.v.v.k.t.d q.e.H N.oXoXoXoXoXoX",
"oXoXoXoXoXoXI.Z >.=.V d 2.p.4...p p ..@.h 5 F >.;.L (.oXoXoXoXoX",
"oXoXoXoXoXoXm.l $.4 A a 1.p.9.- Z N N Z B A P f >.F H.oXoXoXoXoX",
"oXoXoXoXoX}.! f d k I > ,.p.9.1 5 3 3 5 3 M F V x k m.oXoXoXoXoX",
"oXoXoXoXoX'.D > :.5 2 : +.y.h.g.g.x.x.x.:.= 3 A ;.2 (  XoXoXoXoX",
"oXoXoXoXoX'.S g 5.l 1 : O.7.u.u.u.s.d.s.4.1 2 b 5.a /  XoXoXoXoX",
"oXoXoXoXoX].D # 0 + & $ O.6.<.t t t t t u & = $ y 1 _ XXoXoXoXoX",
"oXoXoXoXoX X~ :   > v    .6.&.o % o + O o % b + . 1 N.oXoXoXoXoX",
"oXoXoXoXoXoXV.1 i ; @   | 7.*., , , , , ; O @ > i 3 I.oXoXoXoXoX",
"oXoXoXoXoXoXQ.M g #.;   | 2.y.i.i.i.i.i.&.+ X $.s K [.oXoXoXoXoX",
"oXoXoXoXoXoXXXm.< X.%.q { o.+.+.,.,.1.,.%.e 3...- H.oXoXoXoXoXoX",
"oXoXoXoXoXoXoX`.D # X.r 6 6 6 6 w 6 6 6 w ....< _  XoXoXoXoXoXoX",
"oXoXoXoXoXoXoXoXQ.S # 9 y q O d *.; + w } 8 * ! '.oXoXoXoXoXoXoX",
"oXoXoXoXoXoXoXoXoX^.~ = $ r 9 7 y 7 0 r $ - ] '.oXoXoXoXoXoXoXoX",
"oXoXoXoXoXoXoXoXoXoX}.G.K - + + O + * - ! P. XoXoXoXoXoXoXoXoXoX",
"oXoXoXoXoX X|.}. X XXXoX}.T.C.m._ [ S.Q.{. XXX X}. XoXoXoXoXoXoX",
"oXoXoXoXoXD.K Q Z.G.` {..XN.Z.P.K ! / ~.Z.] !.! Q Q G.XXoXoXoXoX",
"oXoXoXoXoXm.D C./.V.O [ M.+ [ A.C V.A D.P.D.W.C G.B.S {.oXoXoXoX",
"oXoXoXoXoXm.C m.{.V./ ~ L ] [ S.N ` B H.D.M.E.M L M N.XXoXoXoXoX",
"oXoXoXoXoXM.C ( G.V.M.[.'.S.n.D.N ( C F.D.m.E.D !._ B.oXoXoXoXoX",
"oXoXoXoXoX(.P.L.!.(.^. XXX/.~.^.K.J.U.{.E.I.[.E.XX'.E.XXoXoXoXoX",
"oXoXoXoXoXoXoXoXoXoX{.A./.J.^.G.Q.Q.J.U.I.Z. XoXoXoXoXoXoXoXoXoX",
"oXoXoXoXoXoXoXoXoXoX X). XR.[.W.).'.!.(.).E.XXoXoXoXoXoXoXoXoXoX",
"oXoXoXoXoXoXoXoXoXoXoXoXoXoXoXoXoXoXoXoXoXoXoXoXoXoXoXoXoXoXoXoX"
};
