<?xml version="1.0" encoding="UTF-8"?>
<svg version="1.1" xmlns="http://www.w3.org/2000/svg" width="256" height="256">
<path d="M0 0 C84.48 0 168.96 0 256 0 C256 84.48 256 168.96 256 256 C171.52 256 87.04 256 0 256 C0 171.52 0 87.04 0 0 Z " fill="#FCFCFC" transform="translate(0,0)"/>
<path d="M0 0 C10.47535984 7.65507065 18.97117017 16.40084784 25.25 27.8125 C26.04857422 29.19501953 26.04857422 29.19501953 26.86328125 30.60546875 C36.38122412 48.10620241 38.3400875 69.53105981 33.75 88.875 C26.3923987 111.85775459 12.16040036 129.87403613 -8.75 141.8125 C-10.07064453 142.56853516 -10.07064453 142.56853516 -11.41796875 143.33984375 C-28.91753649 152.26597985 -52.0947595 153.89534984 -70.80859375 148.19921875 C-93.51888012 140.53771082 -111.01316865 126.55035675 -122.4375 105.3125 C-131.36416607 86.45594163 -134.51758367 64.54949901 -128.140625 44.36328125 C-118.96015167 20.92212884 -103.97323705 2.49518904 -80.75 -8.1875 C-76.46700188 -9.73160689 -72.14937271 -11.01999458 -67.75 -12.1875 C-65.88408203 -12.72697266 -65.88408203 -12.72697266 -63.98046875 -13.27734375 C-42.26668722 -18.61980804 -18.24381595 -11.98133801 0 0 Z " fill="#080403" transform="translate(178.75,38.1875)"/>
<path d="M0 0 C10.47535984 7.65507065 18.97117017 16.40084784 25.25 27.8125 C26.04857422 29.19501953 26.04857422 29.19501953 26.86328125 30.60546875 C36.38122412 48.10620241 38.3400875 69.53105981 33.75 88.875 C26.3923987 111.85775459 12.16040036 129.87403613 -8.75 141.8125 C-10.07064453 142.56853516 -10.07064453 142.56853516 -11.41796875 143.33984375 C-28.91753649 152.26597985 -52.0947595 153.89534984 -70.80859375 148.19921875 C-93.51888012 140.53771082 -111.01316865 126.55035675 -122.4375 105.3125 C-131.36416607 86.45594163 -134.51758367 64.54949901 -128.140625 44.36328125 C-118.96015167 20.92212884 -103.97323705 2.49518904 -80.75 -8.1875 C-76.46700188 -9.73160689 -72.14937271 -11.01999458 -67.75 -12.1875 C-65.88408203 -12.72697266 -65.88408203 -12.72697266 -63.98046875 -13.27734375 C-42.26668722 -18.61980804 -18.24381595 -11.98133801 0 0 Z M-108.41015625 19.9453125 C-114.31850786 27.18526255 -118.38141623 32.3412565 -117.75 41.8125 C-118.7078025 44.16346976 -119.71157435 46.49601201 -120.75 48.8125 C-125.9138228 65.61839602 -122.83563376 85.3401204 -115.25 100.88671875 C-109.03066132 112.13047688 -100.37521972 120.46511118 -90.75 128.8125 C-90.22921875 129.30621094 -89.7084375 129.79992187 -89.171875 130.30859375 C-76.9070131 141.62187153 -58.81624423 143.00043165 -43.0625 143.125 C-41.85916016 143.15400391 -40.65582031 143.18300781 -39.41601562 143.21289062 C-20.17602666 143.34801751 -4.10829582 133.84510992 9.4296875 120.6953125 C24.3255029 104.87213116 31.15436902 84.70466073 30.5546875 63.2109375 C29.63500502 45.93458818 21.85378416 29.4754531 10.25 16.8125 C9.40501953 15.86503906 9.40501953 15.86503906 8.54296875 14.8984375 C-4.18313954 1.36763384 -22.87271608 -7.63431147 -41.33203125 -8.49609375 C-68.76625689 -9.2988126 -90.12283726 -0.91320931 -108.41015625 19.9453125 Z " fill="#0A0B0C" transform="translate(178.75,38.1875)"/>
<path d="M0 0 C23.76 0 47.52 0 72 0 C72 6.27 72 12.54 72 19 C55.83 19 39.66 19 23 19 C23 25.93 23 32.86 23 40 C39.17 40 55.34 40 72 40 C72 46.27 72 52.54 72 59 C65 55 65 55 63.36491394 53.27128601 C61.36385572 51.40749281 59.85413426 51.63865706 57.16137695 51.65942383 C55.69019157 51.65976372 55.69019157 51.65976372 54.18928528 51.66011047 C52.60478828 51.68333626 52.60478828 51.68333626 50.98828125 51.70703125 C49.90491989 51.71127609 48.82155853 51.71552094 47.70536804 51.71989441 C44.24082723 51.73670431 40.77686538 51.77436152 37.3125 51.8125 C34.96550318 51.82754381 32.61849726 51.84123274 30.27148438 51.85351562 C24.51391972 51.88406514 18.75760889 51.94278416 13 52 C13 63.22 13 74.44 13 86 C27.69421454 86.55114005 27.69421454 86.55114005 33 82 C33.66 82 34.32 82 35 82 C35 81.34 35 80.68 35 80 C32.36 80 29.72 80 27 80 C27 79.67 27 79.34 27 79 C41.52 79 56.04 79 71 79 C69.35 80.65 67.7 82.3 66 84 C65.30753174 84.75506836 64.61506348 85.51013672 63.90161133 86.28808594 C59.31393444 88.9947574 54.7985504 88.49162587 49.57421875 88.390625 C48.47149124 88.38496521 47.36876373 88.37930542 46.23262024 88.37347412 C42.71713508 88.3511175 39.20267613 88.30092021 35.6875 88.25 C33.30144703 88.22993418 30.91537806 88.21168355 28.52929688 88.1953125 C22.6858489 88.15125501 16.84299777 88.08434918 11 88 C10.99191315 87.08402542 10.98382629 86.16805084 10.97549438 85.22431946 C10.89751739 76.58737956 10.81021718 67.95059488 10.71247292 59.31385517 C10.66255104 54.8737379 10.61622064 50.43364394 10.578125 45.9934082 C10.54122028 41.70743512 10.49484624 37.42165906 10.44193649 33.13585472 C10.4234201 31.50165454 10.40830197 29.86741216 10.39665604 28.23314857 C10.37974628 25.94209288 10.35070039 23.6514857 10.31884766 21.3605957 C10.30552399 20.05709671 10.29220032 18.75359772 10.2784729 17.41059875 C9.80798604 11.64830772 8.03596796 8.65743228 3.875 4.75 C2.56963277 3.51431429 1.27396334 2.26803793 0 1 C0 0.67 0 0.34 0 0 Z " fill="#E08B0A" transform="translate(95,57)"/>
<path d="M0 0 C10.42685906 8.93730777 10.42685906 8.93730777 11 13 C11.08823984 15.41437454 11.11763421 17.83108732 11.11352539 20.24707031 C11.11367142 20.96941864 11.11381744 21.69176697 11.1139679 22.43600464 C11.11327284 24.81674228 11.1054995 27.19740108 11.09765625 29.578125 C11.09579063 31.23150591 11.0943674 32.88488738 11.09336853 34.53826904 C11.08955473 38.88494397 11.07973415 43.23158537 11.06866455 47.57824707 C11.05842599 52.01570177 11.05386567 56.45316189 11.04882812 60.890625 C11.03811086 69.59376537 11.02104809 78.29687851 11 87 C17.97488723 87.03456514 24.94811811 87.01451631 31.92285156 86.95727539 C34.29325814 86.94417118 36.66376703 86.94336868 39.03417969 86.95532227 C42.45088553 86.97038331 45.86477446 86.94057222 49.28125 86.90234375 C50.85984802 86.92372658 50.85984802 86.92372658 52.47033691 86.94554138 C53.97098694 86.91630333 53.97098694 86.91630333 55.50195312 86.88647461 C56.37243286 86.884254 57.2429126 86.88203339 58.13977051 86.87974548 C62.31805552 85.80757227 62.31805552 85.80757227 69 79 C57.78 79 46.56 79 35 79 C35 79.66 35 80.32 35 81 C30.19190778 85.08611033 26.30940489 85.63469754 20.125 85.75 C19.34125 85.77964844 18.5575 85.80929688 17.75 85.83984375 C15.83387193 85.909946 13.91693463 85.95730658 12 86 C11.97534902 81.03377651 11.95716351 76.06758834 11.94506836 71.10131836 C11.9400281 69.41055684 11.93319595 67.71979971 11.92456055 66.02905273 C11.91248143 63.60399293 11.90676877 61.17899056 11.90234375 58.75390625 C11.89718246 57.99348526 11.89202118 57.23306427 11.88670349 56.44960022 C11.88650762 54.6326743 11.93802723 52.81586873 12 51 C13.59609247 49.40390753 15.28800628 49.83272457 17.50048828 49.79125977 C18.93800949 49.76232384 18.93800949 49.76232384 20.40457153 49.73280334 C24.81167052 49.67517352 29.21860106 49.62574152 33.62597656 49.5949707 C35.94806824 49.57342185 38.27007937 49.53935649 40.59179688 49.49243164 C43.93917139 49.42536003 47.28486029 49.39795418 50.6328125 49.37890625 C51.66536163 49.35107559 52.69791077 49.32324493 53.76174927 49.29457092 C58.85510711 49.3090313 62.11497309 49.54852366 66.08544922 52.91381836 C67.08202148 53.91829263 68.05754429 54.94458442 69 56 C69.66 56.66 70.32 57.32 71 58 C55.16 58 39.32 58 23 58 C23 64.27 23 70.54 23 77 C39.17 77 55.34 77 72 77 C72 83.6 72 90.2 72 97 C48.24 97 24.48 97 0 97 C0 64.99 0 32.98 0 0 Z " fill="#F80A00" transform="translate(95,58)"/>
<path d="M0 0 C5.506875 -0.12375 5.506875 -0.12375 11.125 -0.25 C12.2711377 -0.28641602 13.41727539 -0.32283203 14.59814453 -0.36035156 C20.75299891 -0.42726388 24.33289777 -0.13153312 29 4 C31 6 31 6 31.3125 9.375 C30.99258956 13.0859611 30.5224581 14.37243948 28 17 C28.7425 17.5259375 28.7425 17.5259375 29.5 18.0625 C31.82850957 21.0701582 31.44572235 23.30687194 31 27 C28.86320715 30.38939556 27.8225233 31.72582557 24 33 C22.15389468 33.08239169 20.30494836 33.10743359 18.45703125 33.09765625 C17.00647339 33.09390991 17.00647339 33.09390991 15.52661133 33.09008789 C14.30095459 33.08098389 13.07529785 33.07187988 11.8125 33.0625 C5.9653125 33.0315625 5.9653125 33.0315625 0 33 C0 22.11 0 11.22 0 0 Z " fill="#060606" transform="translate(125,193)"/>
<path d="M0 0 C1.43752121 -0.02893593 1.43752121 -0.02893593 2.90408325 -0.05845642 C7.31118224 -0.11608624 11.71811278 -0.16551825 16.12548828 -0.19628906 C18.44757996 -0.21783792 20.76959109 -0.25190327 23.09130859 -0.29882812 C26.4386831 -0.36589973 29.78437201 -0.39330558 33.13232422 -0.41235352 C34.16487335 -0.44018417 35.19742249 -0.46801483 36.26126099 -0.49668884 C41.35461883 -0.48222847 44.61448481 -0.2427361 48.58496094 3.12255859 C49.5815332 4.12703286 50.557056 5.15332465 51.49951172 6.20874023 C52.15951172 6.86874023 52.81951172 7.52874023 53.49951172 8.20874023 C37.65951172 8.20874023 21.81951172 8.20874023 5.49951172 8.20874023 C5.49951172 14.47874023 5.49951172 20.74874023 5.49951172 27.20874023 C21.66951172 27.20874023 37.83951172 27.20874023 54.49951172 27.20874023 C54.49951172 33.47874023 54.49951172 39.74874023 54.49951172 46.20874023 C53.17951172 45.54874023 51.85951172 44.88874023 50.49951172 44.20874023 C50.30656764 39.38513835 50.74203558 35.71227285 52.49951172 31.20874023 C51.83951172 30.87874023 51.17951172 30.54874023 50.49951172 30.20874023 C50.99451172 29.71374023 50.99451172 29.71374023 51.49951172 29.20874023 C40.27951172 29.20874023 29.05951172 29.20874023 17.49951172 29.20874023 C17.49951172 29.86874023 17.49951172 30.52874023 17.49951172 31.20874023 C12.69141949 35.29485056 8.80891661 35.84343777 2.62451172 35.95874023 C1.84076172 35.98838867 1.05701172 36.01803711 0.24951172 36.04858398 C-1.66661635 36.11868623 -3.58355365 36.16604681 -5.50048828 36.20874023 C-5.52513926 31.24251674 -5.54332477 26.27632857 -5.55541992 21.31005859 C-5.56046018 19.61929708 -5.56729233 17.92853994 -5.57592773 16.23779297 C-5.58800685 13.81273317 -5.59371951 11.38773079 -5.59814453 8.96264648 C-5.60330582 8.20222549 -5.6084671 7.4418045 -5.61378479 6.65834045 C-5.61398066 4.84141453 -5.56246105 3.02460896 -5.50048828 1.20874023 C-3.90439581 -0.38735224 -2.212482 0.0414648 0 0 Z " fill="#FFBA00" transform="translate(112.50048828125,107.791259765625)"/>
<path d="M0 0 C1.04220703 -0.02900391 2.08441406 -0.05800781 3.15820312 -0.08789062 C9.39620208 -0.13944434 13.07375435 0.13216628 17.8125 4.3125 C20.28285712 6.78285712 20.16292281 7.7085007 20.25 11.125 C20.20217787 14.79667686 19.96761705 16.82751242 17.3125 19.4375 C16.4875 20.05625 15.6625 20.675 14.8125 21.3125 C15.78257516 23.99886197 16.69457015 26.15828404 18.4375 28.4375 C19.8125 30.3125 19.8125 30.3125 19.8125 33.3125 C16.65326252 33.88116275 13.94778713 34.08230221 10.8125 33.3125 C8.15556215 30.65556215 6.37972681 27.71737707 4.8125 24.3125 C4.8125 23.6525 4.8125 22.9925 4.8125 22.3125 C2.1725 22.3125 -0.4675 22.3125 -3.1875 22.3125 C-3.1875 25.9425 -3.1875 29.5725 -3.1875 33.3125 C-6.1575 33.3125 -9.1275 33.3125 -12.1875 33.3125 C-12.21215392 28.77352295 -12.23033789 24.23458457 -12.24243164 19.69555664 C-12.2474714 18.15030234 -12.2543032 16.60505284 -12.26293945 15.05981445 C-12.27502076 12.84324971 -12.28073173 10.62674782 -12.28515625 8.41015625 C-12.29031754 7.7153566 -12.29547882 7.02055695 -12.30079651 6.30470276 C-12.30099277 4.6402067 -12.24939129 2.97584501 -12.1875 1.3125 C-9.71806675 -1.15693325 -3.31276842 0.03017093 0 0 Z " fill="#0B0B0C" transform="translate(195.1875,192.6875)"/>
<path d="M0 0 C4.8827254 0.55759518 6.63811383 2.72063992 9.546875 6.37109375 C12.98501212 10.79461795 12.98501212 10.79461795 17.796875 13.43359375 C18.24417969 12.91410156 18.69148438 12.39460937 19.15234375 11.859375 C20.40409433 10.41545802 21.66358884 8.9782275 22.9296875 7.546875 C24.42282199 5.85694663 25.89474358 4.14828419 27.359375 2.43359375 C29.796875 0.43359375 29.796875 0.43359375 33.046875 0.05859375 C35.796875 0.43359375 35.796875 0.43359375 36.796875 1.43359375 C36.8852717 3.80927895 36.91217805 6.15568049 36.89453125 8.53125 C36.8931163 9.24010849 36.89170135 9.94896698 36.89024353 10.67930603 C36.88462943 12.95161087 36.87207463 15.2238185 36.859375 17.49609375 C36.85436181 19.03320171 36.84979859 20.5703112 36.84570312 22.10742188 C36.83465542 25.88285017 36.81738141 29.65820546 36.796875 33.43359375 C34.156875 33.43359375 31.516875 33.43359375 28.796875 33.43359375 C28.796875 27.16359375 28.796875 20.89359375 28.796875 14.43359375 C28.136875 14.43359375 27.476875 14.43359375 26.796875 14.43359375 C26.53648438 15.01496094 26.27609375 15.59632813 26.0078125 16.1953125 C24.71558522 18.58384872 23.30406902 20.29403663 21.421875 22.24609375 C20.83664063 22.87128906 20.25140625 23.49648437 19.6484375 24.140625 C17.796875 25.43359375 17.796875 25.43359375 15.8359375 25.37890625 C13.2032813 24.1584028 11.57151191 22.56947192 9.546875 20.49609375 C8.84046875 19.78582031 8.1340625 19.07554687 7.40625 18.34375 C5.796875 16.43359375 5.796875 16.43359375 5.796875 14.43359375 C5.136875 14.43359375 4.476875 14.43359375 3.796875 14.43359375 C3.796875 20.70359375 3.796875 26.97359375 3.796875 33.43359375 C1.156875 33.43359375 -1.483125 33.43359375 -4.203125 33.43359375 C-4.22777892 28.8946167 -4.24596289 24.35567832 -4.25805664 19.81665039 C-4.2630964 18.27139609 -4.2699282 16.72614659 -4.27856445 15.1809082 C-4.29064576 12.96434346 -4.29635673 10.74784157 -4.30078125 8.53125 C-4.30594254 7.83645035 -4.31110382 7.1416507 -4.31642151 6.42579651 C-4.31661777 4.76130045 -4.26501629 3.09693876 -4.203125 1.43359375 C-3.203125 0.43359375 -3.203125 0.43359375 0 0 Z " fill="#070808" transform="translate(80.203125,192.56640625)"/>
<path d="M0 0 C0.33 0 0.66 0 1 0 C1.33 14.85 1.66 29.7 2 45 C2.66 45 3.32 45 4 45 C3.97679688 44.10796875 3.95359375 43.2159375 3.9296875 42.296875 C3.91164063 41.12640625 3.89359375 39.9559375 3.875 38.75 C3.85179688 37.58984375 3.82859375 36.4296875 3.8046875 35.234375 C3.9896051 32.17213954 4.39176977 30.55797249 6 28 C8.5 29.125 8.5 29.125 11 31 C11.15625 34.1171875 11.15625 34.1171875 11 37 C18.01140849 36.98370297 25.02176241 36.92884517 32.03271484 36.84741211 C34.41675986 36.82424245 36.80090709 36.80983885 39.18505859 36.80444336 C42.61620707 36.79514679 46.04575017 36.75413719 49.4765625 36.70703125 C50.53928375 36.7109639 51.602005 36.71489655 52.69692993 36.71894836 C59.38142777 36.58772082 62.26443135 35.71354493 67 31 C67.99 31 68.98 31 70 31 C69.89300781 31.90363281 69.78601563 32.80726563 69.67578125 33.73828125 C69.55589844 34.91777344 69.43601562 36.09726563 69.3125 37.3125 C69.18488281 38.48425781 69.05726563 39.65601563 68.92578125 40.86328125 C68.64695705 44.33713961 68.64695705 44.33713961 72 47 C48.24 47 24.48 47 0 47 C0 31.49 0 15.98 0 0 Z " fill="#F60000" transform="translate(95,108)"/>
<path d="M0 0 C10.25303998 8.55237625 17.95218498 18.8330464 23.44921875 31.04296875 C23.63671875 34.41796875 23.63671875 34.41796875 23.44921875 37.04296875 C20.27792439 34.38593834 18.97729124 31.19278833 17.26171875 27.48046875 C14.10797922 20.92119919 10.33091187 15.47360728 5.44921875 10.04296875 C4.67191406 9.12644531 4.67191406 9.12644531 3.87890625 8.19140625 C-5.02856259 -1.61128559 -17.07865824 -7.25120694 -29.55078125 -10.95703125 C-30.34613281 -11.20195313 -31.14148438 -11.446875 -31.9609375 -11.69921875 C-36.27394576 -12.91251202 -40.11924952 -13.14167841 -44.55078125 -12.95703125 C-45.23860485 -10.60335412 -45.23860485 -10.60335412 -45.55078125 -7.95703125 C-44.56078125 -6.47203125 -44.56078125 -6.47203125 -43.55078125 -4.95703125 C-43.17910941 -2.19682129 -43.37227489 0.23149351 -43.55078125 3.04296875 C-45.55078125 5.04296875 -45.55078125 5.04296875 -48.98828125 5.41796875 C-52.55078125 5.04296875 -52.55078125 5.04296875 -54.55078125 3.48046875 C-55.97322216 0.01326902 -55.4014198 -2.35817585 -54.55078125 -5.95703125 C-53.89078125 -6.94703125 -53.23078125 -7.93703125 -52.55078125 -8.95703125 C-52.55078125 -10.27703125 -52.55078125 -11.59703125 -52.55078125 -12.95703125 C-58.93970054 -13.17210378 -64.29968967 -12.61636215 -70.42578125 -10.83203125 C-71.20953125 -10.60684814 -71.99328125 -10.38166504 -72.80078125 -10.1496582 C-83.62390654 -6.8935674 -92.07072698 -1.35700976 -100.55078125 6.04296875 C-101.47310547 6.82220703 -101.47310547 6.82220703 -102.4140625 7.6171875 C-108.73701601 13.38779105 -113.73659894 21.41460413 -117.55078125 29.04296875 C-118.21078125 29.04296875 -118.87078125 29.04296875 -119.55078125 29.04296875 C-117.79486191 17.07273811 -106.71233319 5.77954919 -97.41015625 -1.50390625 C-67.32628802 -23.15847806 -29.33031331 -22.66632583 0 0 Z " fill="#F3F3EA" transform="translate(180.55078125,46.95703125)"/>
<path d="M0 0 C8.25 0 16.5 0 25 0 C25 2.64 25 5.28 25 8 C19.39 8 13.78 8 8 8 C8 9.65 8 11.3 8 13 C11.96 13 15.92 13 20 13 C20 15.31 20 17.62 20 20 C16.04 20 12.08 20 8 20 C8 21.98 8 23.96 8 26 C13.61 26 19.22 26 25 26 C25 28.31 25 30.62 25 33 C16.75 33 8.5 33 0 33 C0 22.11 0 11.22 0 0 Z " fill="#050505" transform="translate(44,193)"/>
<path d="M0 0 C17.11150468 0.42489064 32.38846954 9.67162429 44.38671875 21.31640625 C53.05861609 30.48888849 61.37232482 42.74179106 62.25 55.6875 C62.1675 56.450625 62.085 57.21375 62 58 C56.61928627 53.74548217 52.03325491 49.53150117 49.25 43.125 C46.45260741 37.17625902 41.08796476 32.55280514 35.265625 29.625 C33 28 33 28 32.29296875 25.30078125 C32.25816406 24.31464844 32.22335938 23.32851563 32.1875 22.3125 C32.13980469 21.31863281 32.09210938 20.32476562 32.04296875 19.30078125 C32.02878906 18.54152344 32.01460937 17.78226563 32 17 C30.906875 16.608125 29.81375 16.21625 28.6875 15.8125 C25.2476896 14.53242946 21.94510324 13.06323495 18.625 11.5 C14.94086167 9.7708153 11.44814426 8.53514778 7.5 7.5625 C3.66296518 6.51492859 3.21537742 6.32306613 0.875 2.8125 C0.58625 1.884375 0.2975 0.95625 0 0 Z " fill="#FC9A04" transform="translate(139,37)"/>
<path d="M0 0 C-0.5 2.3125 -0.5 2.3125 -2 5 C-4.7046512 6.22938691 -7.18095372 7.13155187 -10 8 C-11.899769 8.65536724 -13.79552265 9.32246757 -15.6875 10 C-16.57824219 10.309375 -17.46898437 10.61875 -18.38671875 10.9375 C-21.12244446 12.0497831 -23.48294815 13.46410159 -26 15 C-27.98451771 15.71143088 -29.98202112 16.38991336 -32 17 C-31.94457031 17.70125 -31.88914062 18.4025 -31.83203125 19.125 C-31.80998132 22.37074934 -32.02199243 24.89338772 -33 28 C-35.54167361 30.4985944 -38.19465004 32.25454413 -41.19921875 34.1640625 C-45.8478098 37.21125608 -48.98557392 40.87892729 -51.375 45.875 C-53.80195536 50.54222184 -57.30773182 54.27461731 -61 58 C-61.33 58 -61.66 58 -62 58 C-62 43.79401548 -51.92104442 29.25265552 -42.47265625 19.3515625 C-32.57872795 9.89767979 -22.20122396 4.41031619 -9 1 C-8.27296875 0.80277344 -7.5459375 0.60554688 -6.796875 0.40234375 C-4.50586226 -0.11064388 -2.33914514 -0.06497625 0 0 Z " fill="#F9EE01" transform="translate(123,37)"/>
<path d="M0 0 C0.66 0 1.32 0 2 0 C-2.05588203 18.07357956 -12.26535401 33.88792452 -28 44 C-37.47898642 49.41059365 -46.80437146 54.45696443 -58 54 C-57.625 51.1875 -57.625 51.1875 -56 48 C-53.62320275 46.96384365 -51.26842515 46.39646003 -48.75 45.78515625 C-44.3544035 44.5301635 -39.28652606 42.28652606 -36 39 C-33.66666667 38.66666667 -31.33333333 38.33333333 -29 38 C-28.67 37.67 -28.34 37.34 -28 37 C-28.01160156 36.31550781 -28.02320313 35.63101563 -28.03515625 34.92578125 C-28.0655383 32.02212561 -27.89319189 29.77226538 -27 27 C-24.71365415 24.99729856 -22.47164987 23.76405616 -19.73828125 22.44921875 C-13.43841903 19.11505487 -9.63513844 14.58027097 -5.6875 8.8125 C-5.24599609 8.18408203 -4.80449219 7.55566406 -4.34960938 6.90820312 C-2.00353898 3.55842985 -2.00353898 3.55842985 0 0 Z " fill="#EE0600" transform="translate(199,121)"/>
<path d="M0 0 C2.84698444 2.69876833 5.04776593 5.40657442 7.1875 8.6875 C12.01295481 15.66331741 17.09582075 21.89990197 25 25.3125 C27.24609375 26.40625 27.24609375 26.40625 29 28 C30.06590255 32.0302783 30.1654987 35.84929263 30 40 C31.7634375 39.8453125 31.7634375 39.8453125 33.5625 39.6875 C37.69526152 39.6875 39.54238034 40.92310141 42.734375 43.578125 C46.41397414 45.88739067 50.65555622 46.89599809 54.84594727 47.94799805 C56.76953125 48.49609375 56.76953125 48.49609375 60 50 C61.44921875 53.16015625 61.44921875 53.16015625 62 56 C44.68433834 54.54714483 28.96289139 46.98416843 17.1875 34.0625 C16.10328685 32.72565466 15.04097194 31.37078483 14 30 C13.41734375 29.25234375 12.8346875 28.5046875 12.234375 27.734375 C6.0465718 19.39429243 1.1275015 10.42283366 0 0 Z " fill="#E80B00" transform="translate(61,120)"/>
<path d="M0 0 C23.76 0 47.52 0 72 0 C72 6.27 72 12.54 72 19 C71.67 19 71.34 19 71 19 C70.67 13.72 70.34 8.44 70 3 C68.700625 4.134375 67.40125 5.26875 66.0625 6.4375 C64.96615234 7.39462891 64.96615234 7.39462891 63.84765625 8.37109375 C62.87860647 9.22541459 61.91348825 10.08651175 61 11 C58.55169574 11.08843793 56.13179401 11.11528752 53.68359375 11.09765625 C52.95253922 11.0962413 52.22148468 11.09482635 51.46827698 11.09336853 C49.12464368 11.08775408 46.78110461 11.07519922 44.4375 11.0625 C42.85221492 11.05748686 41.26692834 11.05292363 39.68164062 11.04882812 C35.7877239 11.03777997 31.89387795 11.02050572 28 11 C30.57784846 8.35247996 32.91648098 6.05567935 36 4 C34.9805127 3.98541748 33.96102539 3.97083496 32.91064453 3.95581055 C29.13456834 3.89791534 25.35909404 3.82068335 21.58349609 3.73754883 C19.94817866 3.70425786 18.31274518 3.67623894 16.67724609 3.65356445 C14.32859757 3.62009372 11.98101663 3.56778564 9.6328125 3.51171875 C8.89942657 3.50532883 8.16604065 3.4989389 7.41043091 3.49235535 C5.34814453 3.43237305 5.34814453 3.43237305 2 3 C1.34 2.01 0.68 1.02 0 0 Z " fill="#FFFFA4" transform="translate(95,57)"/>
<path d="M0 0 C7.27674798 10.91512198 6.23133779 27.71214915 3.875 40.125 C0.82234882 52.49178686 -3.801759 63.12278344 -12 73 C-12.67804688 73.85207031 -13.35609375 74.70414062 -14.0546875 75.58203125 C-23.75526246 87.14810139 -38.86291585 97.38986663 -54 100 C-58.52330264 100.31150059 -63.02975141 100.33313058 -67.5625 100.3125 C-68.81869141 100.30758545 -70.07488281 100.3026709 -71.36914062 100.29760742 C-86.58489197 100.10494044 -99.91717346 97.13832248 -113 89 C-112.01 88.505 -112.01 88.505 -111 88 C-107.90466565 89.31205217 -104.94438539 90.84141673 -101.9453125 92.359375 C-92.69833703 96.50927955 -83.22030214 97.53250193 -73.1875 97.4375 C-71.47965332 97.42505249 -71.47965332 97.42505249 -69.73730469 97.41235352 C-49.63832152 97.01020212 -32.06650585 89.32793097 -18 75 C-3.11709559 58.90000025 1.79600212 40.20776356 1.3125 18.71484375 C1.07599413 13.63302574 0.06179413 8.94712245 -1.5390625 4.1171875 C-1.69117188 3.41851562 -1.84328125 2.71984375 -2 2 C-1.34 1.34 -0.68 0.68 0 0 Z " fill="#060C21" transform="translate(204,81)"/>
<path d="M0 0 C1.32570511 0.00666183 1.32570511 0.00666183 2.67819214 0.01345825 C3.67907867 0.01360931 4.67996521 0.01376038 5.71118164 0.01391602 C7.33623123 0.02939987 7.33623123 0.02939987 8.99411011 0.04519653 C10.65456863 0.04944138 10.65456863 0.04944138 12.34857178 0.05377197 C15.89458898 0.06499384 19.44035636 0.09010213 22.98629761 0.11550903 C25.38603355 0.12553624 27.78577344 0.13466253 30.18551636 0.14285278 C36.07752911 0.16493971 41.96939552 0.19843697 47.86129761 0.24050903 C46.19463094 1.9071757 44.52796427 3.57384237 42.86129761 5.24050903 C42.32730347 5.99557739 41.79330933 6.75064575 41.24313354 7.52859497 C37.18361406 10.44632259 32.60835803 9.72651517 27.75192261 9.63113403 C26.6699762 9.62547424 25.58802979 9.61981445 24.47329712 9.61398315 C21.01884654 9.59159903 17.5654345 9.54139694 14.11129761 9.49050903 C11.76886467 9.47044675 9.42641548 9.45219551 7.08395386 9.43582153 C1.34271431 9.39172759 -4.39791984 9.32479458 -10.13870239 9.24050903 C-9.18140323 8.11462889 -8.22282344 6.98983754 -7.26370239 5.86550903 C-6.73003052 5.23902466 -6.19635864 4.61254028 -5.64651489 3.96707153 C-2.41969137 0.27210781 -2.41969137 0.27210781 0 0 Z " fill="#FFFD03" transform="translate(118.13870239257813,97.75949096679688)"/>
<path d="M0 0 C3.13152248 1.42150009 5.58143518 3.13564224 8.1875 5.375 C8.88230469 5.96023437 9.57710937 6.54546875 10.29296875 7.1484375 C12.12401235 9.13451225 12.61074192 10.36234076 13 13 C8.25 16 8.25 16 6 16 C6 15.34 6 14.68 6 14 C4.98679687 14.433125 4.98679687 14.433125 3.953125 14.875 C3.06109375 15.24625 2.1690625 15.6175 1.25 16 C0.36828125 16.37125 -0.5134375 16.7425 -1.421875 17.125 C-4 18 -4 18 -8 18 C-8 17.34 -8 16.68 -8 16 C-10.97 16.495 -10.97 16.495 -14 17 C-14.495 18.485 -14.495 18.485 -15 20 C-20.65412914 23.76941943 -28.33982804 23.56936008 -34.8125 22.5625 C-37.75256894 21.80648227 -40.29133514 20.35433243 -43 19 C-43 18.01 -43 17.02 -43 16 C-43.66 16 -44.32 16 -45 16 C-45 15.34 -45 14.68 -45 14 C-46.32 13.67 -47.64 13.34 -49 13 C-48.41340103 12.98969254 -47.82680206 12.97938507 -47.22242737 12.96876526 C-41.1396213 12.86092806 -35.05697026 12.74631244 -28.97436523 12.62768555 C-26.70161164 12.58426335 -24.42882387 12.54259384 -22.15600586 12.50268555 C-18.89686768 12.44515881 -15.63790269 12.38141448 -12.37890625 12.31640625 C-11.35599991 12.29969376 -10.33309357 12.28298126 -9.27919006 12.26576233 C-8.33829025 12.24581711 -7.39739044 12.22587189 -6.42797852 12.20532227 C-5.17888451 12.18200584 -5.17888451 12.18200584 -3.90455627 12.15821838 C-1.99033415 12.20571386 -1.99033415 12.20571386 -1 11 C-0.76636119 9.15108054 -0.58696365 7.29511969 -0.4375 5.4375 C-0.35371094 4.42558594 -0.26992187 3.41367188 -0.18359375 2.37109375 C-0.09271484 1.19740234 -0.09271484 1.19740234 0 0 Z " fill="#03081C" transform="translate(172,69)"/>
<path d="M0 0 C6.84988773 -0.15253358 13.69933525 -0.25737564 20.55053711 -0.32958984 C22.87947964 -0.35970339 25.20830931 -0.40060378 27.53686523 -0.45263672 C30.89074588 -0.52568729 34.2431233 -0.55951188 37.59765625 -0.5859375 C38.63334244 -0.61690521 39.66902863 -0.64787292 40.73609924 -0.67977905 C45.83997142 -0.68213809 49.10755346 -0.46194311 53.08764648 2.91162109 C54.08363388 3.91671751 55.05844916 4.94373691 56 6 C56.66 6.66 57.32 7.32 58 8 C51.02740866 8.34703744 44.05431638 8.62899432 37.07714844 8.86669922 C34.70610645 8.955055 32.33556236 9.05807709 29.96582031 9.17626953 C26.55039675 9.34402963 23.13662994 9.45821762 19.71875 9.5625 C18.66635132 9.62566406 17.61395264 9.68882813 16.52966309 9.75390625 C12.09961553 9.8452364 9.17668342 9.83857182 5.49438477 7.21435547 C3.47758862 5.23360117 1.6690222 3.28007832 0 1 C0 0.67 0 0.34 0 0 Z " fill="#F80700" transform="translate(108,108)"/>
<path d="M0 0 C6.81326359 -0.15285261 13.62608084 -0.25750826 20.44067383 -0.32958984 C22.75594608 -0.35965622 25.07110543 -0.40052117 27.38598633 -0.45263672 C30.72505629 -0.52589659 34.06261327 -0.55955923 37.40234375 -0.5859375 C38.94038918 -0.63238907 38.94038918 -0.63238907 40.50950623 -0.67977905 C47.80178057 -0.68315009 52.51231783 1.11508691 58 6 C58 6.33 58 6.66 58 7 C50.86637848 7.32124086 43.73224354 7.58588318 36.5949707 7.81176758 C34.16870979 7.89517485 31.74285364 7.99140291 29.31762695 8.10083008 C25.82531379 8.25615534 22.33412662 8.36487986 18.83984375 8.46484375 C17.22069313 8.55184792 17.22069313 8.55184792 15.5688324 8.64060974 C8.16190895 8.78975616 8.16190895 8.78975616 4.7102356 6.44363403 C2.94325597 4.71293133 1.40581392 3.03314249 0 1 C0 0.67 0 0.34 0 0 Z " fill="#FF6500" transform="translate(108,69)"/>
<path d="M0 0 C14.52 0 29.04 0 44 0 C36.18215928 7.81784072 36.18215928 7.81784072 32.65875244 8.36076355 C31.79715515 8.35410172 30.93555786 8.34743988 30.04785156 8.34057617 C29.06713684 8.34034958 28.08642212 8.34012299 27.07598877 8.33988953 C26.02481873 8.32440567 24.97364868 8.30892181 23.890625 8.29296875 C22.80867859 8.28872391 21.72673218 8.28447906 20.61199951 8.28010559 C17.1577461 8.26331845 13.70407696 8.22566527 10.25 8.1875 C7.90756051 8.17245325 5.56511187 8.15876483 3.22265625 8.14648438 C-2.51842838 8.11341481 -8.25917245 8.06321466 -14 8 C-14 7.67 -14 7.34 -14 7 C-12.89140625 6.96261719 -11.7828125 6.92523438 -10.640625 6.88671875 C-9.17705026 6.82104552 -7.71351009 6.75459865 -6.25 6.6875 C-5.52039063 6.66494141 -4.79078125 6.64238281 -4.0390625 6.61914062 C0.28050512 6.40316224 2.78148432 5.91385036 6 3 C6.66 3 7.32 3 8 3 C8 2.34 8 1.68 8 1 C5.36 1 2.72 1 0 1 C0 0.67 0 0.34 0 0 Z " fill="#FFDD00" transform="translate(122,136)"/>
<path d="M0 0 C17.11150468 0.42489064 32.38846954 9.67162429 44.38671875 21.31640625 C51.25444822 28.58057512 59.73181758 38.89316595 60.125 49.3125 C60.08375 50.199375 60.0425 51.08625 60 52 C57.73684178 49.887719 56.13981271 47.78315977 54.5625 45.125 C50.35455489 38.0423201 45.53622558 34.03732762 38.78125 29.57421875 C37.13791541 28.45219408 35.56233049 27.2323195 34 26 C34 25.01 34 24.02 34 23 C38.61513112 24.31860889 42.09897612 26.21355437 46 29 C38.62157697 18.12123295 29.07567607 11.85284178 17 7 C16.17628906 6.64550781 15.35257813 6.29101562 14.50390625 5.92578125 C11.12997597 4.67832185 7.75078941 4.20739327 4.20703125 3.66015625 C2 3 2 3 0 0 Z " fill="#F5ED04" transform="translate(139,37)"/>
<path d="M0 0 C-0.33 0.99 -0.66 1.98 -1 3 C-3.55340736 3.94934376 -6.00467995 4.72987346 -8.625 5.4375 C-14.32545337 6.99646377 -18.92655328 8.95096409 -24 12 C-25.9812585 12.72045764 -27.97669589 13.40781343 -30 14 C-29.94457031 14.70125 -29.88914062 15.4025 -29.83203125 16.125 C-29.80998132 19.37074934 -30.02199243 21.89338772 -31 25 C-33.54167361 27.4985944 -36.19465004 29.25454413 -39.19921875 31.1640625 C-43.8478098 34.21125608 -46.98557392 37.87892729 -49.375 42.875 C-51.80195536 47.54222184 -55.30773182 51.27461731 -59 55 C-59.33 55 -59.66 55 -60 55 C-59.88541307 53.56163249 -59.75790884 52.12429034 -59.625 50.6875 C-59.55539063 49.88699219 -59.48578125 49.08648437 -59.4140625 48.26171875 C-59 46 -59 46 -57 43 C-57 44.65 -57 46.3 -57 48 C-56.70867187 47.43152344 -56.41734375 46.86304688 -56.1171875 46.27734375 C-51.28192228 37.16940706 -46.10528851 31.68739724 -37.40625 26.10742188 C-33.79803698 23.81554389 -33.79803698 23.81554389 -32 20 C-32.69867188 20.44472656 -33.39734375 20.88945313 -34.1171875 21.34765625 C-35.02726562 21.91355469 -35.93734375 22.47945312 -36.875 23.0625 C-37.77992187 23.63097656 -38.68484375 24.19945313 -39.6171875 24.78515625 C-40.40351562 25.18605469 -41.18984375 25.58695313 -42 26 C-42.66 25.67 -43.32 25.34 -44 25 C-33.12798951 11.98002391 -17.94662314 -0.51276066 0 0 Z " fill="#F14A00" transform="translate(121,40)"/>
<path d="M0 0 C7.44825883 3.72412941 7.44825883 3.72412941 10 7 C10.94891051 10.10120871 10.99810132 13.02305836 10.9375 16.25 C10.93290771 17.09667236 10.92831543 17.94334473 10.92358398 18.81567383 C10.66085811 24.41060195 9.65451164 27.60202512 5.5625 31.6875 C1.45242718 35 1.45242718 35 0 35 C0 23.45 0 11.9 0 0 Z " fill="#FFF800" transform="translate(107,70)"/>
<path d="M0 0 C0.33 0 0.66 0 1 0 C1 6.27 1 12.54 1 19 C17.17 19 33.34 19 50 19 C50 25.27 50 31.54 50 38 C48.68 37.34 47.36 36.68 46 36 C45.80705592 31.17639811 46.24252386 27.50353262 48 23 C47.34 22.67 46.68 22.34 46 22 C46.495 21.505 46.495 21.505 47 21 C35.78 21 24.56 21 13 21 C13 21.66 13 22.32 13 23 C8.17562312 27.10909071 4.6481262 27.53318496 -1.375 27.25 C-2.11105469 27.23195312 -2.84710938 27.21390625 -3.60546875 27.1953125 C-5.40421736 27.14859176 -7.20228711 27.07686183 -9 27 C-7.15014033 23.06048404 -4.92434659 20.21678125 -2 17 C-1.34 17 -0.68 17 0 17 C0 11.39 0 5.78 0 0 Z " fill="#EFA400" transform="translate(117,116)"/>
<path d="M0 0 C2.97 0.33 5.94 0.66 9 1 C9 1.66 9 2.32 9 3 C10.7634375 2.8453125 10.7634375 2.8453125 12.5625 2.6875 C16.69526152 2.6875 18.54238034 3.92310141 21.734375 6.578125 C25.41397414 8.88739067 29.65555622 9.89599809 33.84594727 10.94799805 C35.76953125 11.49609375 35.76953125 11.49609375 39 13 C40.44921875 16.16015625 40.44921875 16.16015625 41 19 C25.2798228 17.68101253 11.79783215 11.41248065 0 1 C0 0.67 0 0.34 0 0 Z " fill="#BC0000" transform="translate(82,157)"/>
<path d="M0 0 C17.82380484 3.5279476 36.30022149 15.72036558 46.53515625 30.609375 C56.60363953 45.8342028 56.60363953 45.8342028 56.08203125 53.13671875 C52.91073689 50.47968834 51.61010374 47.28653833 49.89453125 43.57421875 C46.74079172 37.01494919 42.96372437 31.56735728 38.08203125 26.13671875 C37.30472656 25.22019531 37.30472656 25.22019531 36.51171875 24.28515625 C25.71328188 12.40144934 10.4050764 6.50778868 -4.91796875 3.13671875 C-2.50748316 0.17874116 -2.50748316 0.17874116 0 0 Z " fill="#E1E2D5" transform="translate(147.91796875,30.86328125)"/>
<path d="M0 0 C7.27674798 10.91512198 6.23133779 27.71214915 3.875 40.125 C0.79675713 52.59546297 -3.93601246 62.90185344 -12 73 C-12.66 73.99 -13.32 74.98 -14 76 C-16.95264073 78.04413589 -18.36672806 79 -22 79 C-21.43152344 78.40574219 -20.86304688 77.81148438 -20.27734375 77.19921875 C-4.23189371 59.97513799 1.83251847 42.04106335 1.3125 18.71484375 C1.07599413 13.63302574 0.06179413 8.94712245 -1.5390625 4.1171875 C-1.69117188 3.41851562 -1.84328125 2.71984375 -2 2 C-1.34 1.34 -0.68 0.68 0 0 Z " fill="#04142F" transform="translate(204,81)"/>
<path d="M0 0 C0.33 0 0.66 0 1 0 C1.01417969 0.67546875 1.02835938 1.3509375 1.04296875 2.046875 C1.24548655 7.94606477 1.24548655 7.94606477 4.5625 12.625 C5.366875 13.07875 6.17125 13.5325 7 14 C6.57900692 16.84170331 5.91373451 18.1057448 4.0625 20.375 C1.85406433 23.18573631 0.95396417 25.58162838 0 29 C-4.15645056 25.14043876 -7.46783561 21.46730763 -8.6875 15.8125 C-7.64225286 10.01612951 -4.20544281 4.20544281 0 0 Z " fill="#F26200" transform="translate(69,92)"/>
<path d="M0 0 C11.22 0 22.44 0 34 0 C32.35 1.65 30.7 3.3 29 5 C28.41863281 5.58523437 27.83726563 6.17046875 27.23828125 6.7734375 C23.68851404 8.71868515 20.17655372 8.61571938 16.1875 8.625 C14.97344482 8.63067993 14.97344482 8.63067993 13.73486328 8.63647461 C8.94379396 8.49676348 5.89662013 8.11328469 2.375 4.5625 C0 1.45238095 0 1.45238095 0 0 Z " fill="#FFFE06" transform="translate(98,60)"/>
<path d="M0 0 C0.33 0 0.66 0 1 0 C1.33 14.85 1.66 29.7 2 45 C2.66 45 3.32 45 4 45 C3.97679688 44.10796875 3.95359375 43.2159375 3.9296875 42.296875 C3.91164063 41.12640625 3.89359375 39.9559375 3.875 38.75 C3.85179688 37.58984375 3.82859375 36.4296875 3.8046875 35.234375 C3.9896051 32.17213954 4.39176977 30.55797249 6 28 C8.5 29 8.5 29 11 31 C11.6875 34.75 11.6875 34.75 11 39 C9.02 41.31 7.04 43.62 5 46 C27.11 46 49.22 46 72 46 C72 46.33 72 46.66 72 47 C48.24 47 24.48 47 0 47 C0 31.49 0 15.98 0 0 Z " fill="#C10000" transform="translate(95,108)"/>
<path d="M0 0 C0.66 0.66 1.32 1.32 2 2 C0.82824219 2.29132812 -0.34351563 2.58265625 -1.55078125 2.8828125 C-15.47742807 6.46390785 -26.06559589 11.45827387 -37 21 C-37.92232422 21.77923828 -37.92232422 21.77923828 -38.86328125 22.57421875 C-45.18623476 28.3448223 -50.18581769 36.37163538 -54 44 C-54.66 44 -55.32 44 -56 44 C-54.24408066 32.02976936 -43.16155194 20.73658044 -33.859375 13.453125 C-9.37863071 -4.16828031 -9.37863071 -4.16828031 0 0 Z " fill="#DCDDA6" transform="translate(117,32)"/>
<path d="M0 0 C4.58799296 4.33999334 7.56945822 7.41674933 8.625 13.75 C8.47582955 19.33323701 4.58299712 23.05139093 1 27 C0.73574219 26.42378906 0.47148437 25.84757812 0.19921875 25.25390625 C-1.44880862 22.1564737 -3.63754203 19.608526 -5.85546875 16.90234375 C-6.23316406 16.27457031 -6.61085937 15.64679688 -7 15 C-6 12 -6 12 -3.5 9.75 C-0.50473949 6.45521344 -0.25696282 4.3683679 0 0 Z " fill="#FEBA0B" transform="translate(193,94)"/>
<path d="M0 0 C23.76 0 47.52 0 72 0 C72 6.27 72 12.54 72 19 C71.67 19 71.34 19 71 19 C71 13.06 71 7.12 71 1 C61.76 1.33 52.52 1.66 43 2 C43 2.99 43 3.98 43 5 C43.66 5.33 44.32 5.66 45 6 C44.319375 5.7525 43.63875 5.505 42.9375 5.25 C39.08774444 4.6422742 39.08774444 4.6422742 33 9 C46.86 9.495 46.86 9.495 61 10 C61 10.33 61 10.66 61 11 C50.11 11 39.22 11 28 11 C33 6 33 6 36 4 C34.9805127 3.98541748 33.96102539 3.97083496 32.91064453 3.95581055 C29.13456834 3.89791534 25.35909404 3.82068335 21.58349609 3.73754883 C19.94817866 3.70425786 18.31274518 3.67623894 16.67724609 3.65356445 C14.32859757 3.62009372 11.98101663 3.56778564 9.6328125 3.51171875 C8.89942657 3.50532883 8.16604065 3.4989389 7.41043091 3.49235535 C5.34814453 3.43237305 5.34814453 3.43237305 2 3 C1.34 2.01 0.68 1.02 0 0 Z " fill="#D9D86B" transform="translate(95,57)"/>
<path d="M0 0 C0.33 0.66 0.66 1.32 1 2 C-3.40698382 12.6210154 -10.87940913 22.06835094 -20 29 C-20.66 29 -21.32 29 -22 29 C-22.62308517 25.4968767 -22.85467782 22.47603724 -22 19 C-19.02476695 16.30729877 -15.57768996 14.76735735 -12 13 C-6.90106836 9.60442325 -3.46931353 4.95791968 0 0 Z " fill="#EEB000" transform="translate(194,129)"/>
<path d="M0 0 C6.37071312 5.42188351 6.37071312 5.42188351 9.2578125 8.07421875 C13.31460051 11.79408708 16.88726685 14.90246845 22 17 C22 20.3 22 23.6 22 27 C11.76416597 21.88208299 5.46360497 11.72599182 0 2 C0 1.34 0 0.68 0 0 Z " fill="#EDA801" transform="translate(68,131)"/>
<path d="M0 0 C1.98 1.65 3.96 3.3 6 5 C5.01 5.33 4.02 5.66 3 6 C2.34 5.67 1.68 5.34 1 5 C2.23566231 8.70698694 3.47726371 9.25403671 6.6875 11.375 C7.59371094 11.99375 8.49992188 12.6125 9.43359375 13.25 C10.28050781 13.8275 11.12742188 14.405 12 15 C18.52333467 19.56776169 22.58876586 25.90398935 26 33 C26.66 32.34 27.32 31.68 28 31 C28.33 33.97 28.66 36.94 29 40 C23.61928627 35.74548217 19.03325491 31.53150117 16.25 25.125 C13.44186904 19.15342355 8.06157762 14.55673438 2.234375 11.59375 C0 10 0 10 -0.48828125 7.51953125 C-0.43027344 6.62621094 -0.37226563 5.73289062 -0.3125 4.8125 C-0.26738281 3.91144531 -0.22226563 3.01039062 -0.17578125 2.08203125 C-0.08876953 1.05142578 -0.08876953 1.05142578 0 0 Z " fill="#F26400" transform="translate(172,55)"/>
<path d="M0 0 C-0.33 0.99 -0.66 1.98 -1 3 C0.32 3.33 1.64 3.66 3 4 C-12.58584337 11.38425129 -12.58584337 11.38425129 -22 11 C-21.625 8.1875 -21.625 8.1875 -20 5 C-17.53340709 3.89263875 -15.13877011 3.25320618 -12.5078125 2.640625 C-10.00190132 2.09676562 -10.00190132 2.09676562 -7.8828125 0.9296875 C-5.23513933 -0.37766979 -2.90551759 -0.13206898 0 0 Z " fill="#E20400" transform="translate(163,164)"/>
<path d="M0 0 C15.18 0 30.36 0 46 0 C39 7 39 7 36.375 7.125 C35.59125 7.08375 34.8075 7.0425 34 7 C34 6.34 34 5.68 34 5 C33.33613281 4.95101562 32.67226562 4.90203125 31.98828125 4.8515625 C30.66376953 4.73941406 30.66376953 4.73941406 29.3125 4.625 C28.00732422 4.52058594 28.00732422 4.52058594 26.67578125 4.4140625 C24 4 24 4 21.78125 3 C17.64620397 1.51324188 13.55155615 1.53120783 9.1875 1.375 C8.30384766 1.33632812 7.42019531 1.29765625 6.50976562 1.2578125 C4.34017028 1.16399216 2.17011453 1.08092674 0 1 C0 0.67 0 0.34 0 0 Z " fill="#FFFE28" transform="translate(120,98)"/>
<path d="M0 0 C-0.33 0.99 -0.66 1.98 -1 3 C-3.55340736 3.94934376 -6.00467995 4.72987346 -8.625 5.4375 C-14.3256102 6.99650666 -18.92188254 8.96063413 -24 12 C-25.03125 12.309375 -26.0625 12.61875 -27.125 12.9375 C-30.72599841 14.26830376 -32.4414776 16.17215945 -35 19 C-37.33333333 21.33333333 -39.66666667 23.66666667 -42 26 C-42.66 25.67 -43.32 25.34 -44 25 C-33.12798951 11.98002391 -17.94662314 -0.51276066 0 0 Z " fill="#FC9003" transform="translate(121,40)"/>
<path d="M0 0 C4.52451299 1.44399351 4.52451299 1.44399351 5.9375 3.9375 C5.8125 7.5 5.8125 7.5 4.9375 10.9375 C1.46707297 13.25111802 0.01915827 13.44770728 -4.0625 12.9375 C-6.3776023 10.85390793 -6.96526165 9.49314772 -7.5 6.4375 C-7.0625 3.9375 -7.0625 3.9375 -5.4375 1.5625 C-3.0625 -0.0625 -3.0625 -0.0625 0 0 Z " fill="#F40400" transform="translate(132.0625,160.0625)"/>
<path d="M0 0 C8.5265926 0.65928814 17.0197324 0.60527834 25.56665039 0.43725586 C31.87148548 0.36592178 37.33797207 0.94062344 43.4375 2.5625 C43.4375 2.8925 43.4375 3.2225 43.4375 3.5625 C18.1925 4.0575 18.1925 4.0575 -7.5625 4.5625 C-7.8925 3.2425 -8.2225 1.9225 -8.5625 0.5625 C-5.6214832 -0.9080084 -3.27228767 -0.27638718 0 0 Z " fill="#F33F00" transform="translate(122.5625,72.4375)"/>
<path d="M0 0 C1.12849651 0.94791448 2.25427841 1.89906134 3.37890625 2.8515625 C4.00611572 3.38088379 4.6333252 3.91020508 5.27954102 4.45556641 C7.15044638 6.13505375 8.62425719 7.89592276 10 10 C8.35 10.66 6.7 11.32 5 12 C5.33 12.66 5.66 13.32 6 14 C5.67 14.99 5.34 15.98 5 17 C4.77820215 18.89212737 4.59385985 20.78884472 4.4375 22.6875 C4.35371094 23.68136719 4.26992187 24.67523438 4.18359375 25.69921875 C4.12300781 26.45847656 4.06242187 27.21773437 4 28 C3.01 27.67 2.02 27.34 1 27 C0.20293232 23.50007304 -0.11863027 20.2857769 -0.09765625 16.69921875 C-0.09443359 15.72275391 -0.09121094 14.74628906 -0.08789062 13.74023438 C-0.07951172 12.73283203 -0.07113281 11.72542969 -0.0625 10.6875 C-0.05798828 9.66076172 -0.05347656 8.63402344 -0.04882812 7.57617188 C-0.03708184 5.05072118 -0.02065565 2.52539095 0 0 Z " fill="#F75800" transform="translate(95,58)"/>
<path d="M0 0 C0.66 0.99 1.32 1.98 2 3 C2.78117188 4.15822266 2.78117188 4.15822266 3.578125 5.33984375 C4.12984375 6.19707031 4.6815625 7.05429687 5.25 7.9375 C5.81203125 8.79214844 6.3740625 9.64679687 6.953125 10.52734375 C8 13 8 13 7.171875 15.31640625 C6.59179688 16.14978516 6.59179688 16.14978516 6 17 C-0.3833448 17.48176187 -0.3833448 17.48176187 -3 15.4375 C-4.44394786 11.91787709 -3.8851799 9.66717386 -3 6 C-1.4375 2.5625 -1.4375 2.5625 0 0 Z " fill="#FFF013" transform="translate(129,35)"/>
<path d="M0 0 C3.13152248 1.42150009 5.58143518 3.13564224 8.1875 5.375 C8.88230469 5.96023437 9.57710937 6.54546875 10.29296875 7.1484375 C12.12401235 9.13451225 12.61074192 10.36234076 13 13 C8.25 16 8.25 16 6 16 C5.67 15.34 5.34 14.68 5 14 C4.01 13.67 3.02 13.34 2 13 C0.01165038 8.60470084 -0.19118486 4.77962147 0 0 Z " fill="#0F2326" transform="translate(172,69)"/>
<path d="M0 0 C6.43311296 -0.09507063 12.65758005 -0.15316726 19 1 C19 1.66 19 2.32 19 3 C29.23 3 39.46 3 50 3 C50.495 3.99 50.495 3.99 51 5 C36.62232684 5.10256242 22.33811362 5.14215414 8 4 C7.34 4 6.68 4 6 4 C5.67 4.66 5.34 5.32 5 6 C3.35 4.02 1.7 2.04 0 0 Z " fill="#FF4D00" transform="translate(108,69)"/>
<path d="M0 0 C1.093125 0.00257813 2.18625 0.00515625 3.3125 0.0078125 C4.405625 0.00523437 5.49875 0.00265625 6.625 0 C9.3125 0.1328125 9.3125 0.1328125 10.3125 1.1328125 C10.3125 3.4428125 10.3125 5.7528125 10.3125 8.1328125 C5.6925 8.1328125 1.0725 8.1328125 -3.6875 8.1328125 C-3.6875 0.1822311 -3.6875 0.1822311 0 0 Z " fill="#181919" transform="translate(165.6875,192.8671875)"/>
<path d="M0 0 C1.093125 0.00257813 2.18625 0.00515625 3.3125 0.0078125 C4.405625 0.00523437 5.49875 0.00265625 6.625 0 C9.3125 0.1328125 9.3125 0.1328125 10.3125 1.1328125 C10.4375 4.1328125 10.4375 4.1328125 10.3125 7.1328125 C9.3125 8.1328125 9.3125 8.1328125 6.625 8.265625 C5.531875 8.26304687 4.43875 8.26046875 3.3125 8.2578125 C2.219375 8.26039063 1.12625 8.26296875 0 8.265625 C-2.6875 8.1328125 -2.6875 8.1328125 -3.6875 7.1328125 C-3.8125 4.1328125 -3.8125 4.1328125 -3.6875 1.1328125 C-2.6875 0.1328125 -2.6875 0.1328125 0 0 Z " fill="#1E1F1F" transform="translate(165.6875,205.8671875)"/>
<path d="M0 0 C0.33 0.66 0.66 1.32 1 2 C2.01707031 1.98259766 2.01707031 1.98259766 3.0546875 1.96484375 C9.44204207 1.90291649 15.65969676 2.22981132 22 3 C22 3.99 22 4.98 22 6 C12.1 6 2.2 6 -8 6 C-3 1 -3 1 0 0 Z " fill="#FFFF75" transform="translate(135,61)"/>
<path d="M0 0 C0.66 0.66 1.32 1.32 2 2 C1.67619826 4.84338402 0.87169055 7.43518289 0.0625 10.1796875 C-3.35127163 22.0525844 -3.81233884 33.6920166 -4 46 C-7.084643 42.915357 -6.29425718 39.73998146 -6.32226562 35.5234375 C-6.31904297 34.40195313 -6.31582031 33.28046875 -6.3125 32.125 C-6.32861328 31.0421875 -6.34472656 29.959375 -6.36132812 28.84375 C-6.36744049 18.59942862 -4.41632952 9.25326186 0 0 Z " fill="#2C4351" transform="translate(60,74)"/>
<path d="M0 0 C16.17 0 32.34 0 49 0 C49 6.27 49 12.54 49 19 C47.68 18.34 46.36 17.68 45 17 C44.80705592 12.17639811 45.24252386 8.50353262 47 4 C46.34 3.67 45.68 3.34 45 3 C45.33 2.67 45.66 2.34 46 2 C30.82 1.67 15.64 1.34 0 1 C0 0.67 0 0.34 0 0 Z " fill="#B98E05" transform="translate(118,135)"/>
<path d="M0 0 C4.81400821 7.22101232 5.28091318 16.39300989 5.3125 24.875 C5.31781738 25.5757666 5.32313477 26.2765332 5.32861328 26.99853516 C5.26493749 31.70272424 4.44956483 35.57622846 3 40 C2.67 40 2.34 40 2 40 C1.98541748 39.27522461 1.97083496 38.55044922 1.95581055 37.80371094 C1.88036228 34.45199502 1.78402834 31.10117254 1.6875 27.75 C1.66494141 26.61046875 1.64238281 25.4709375 1.61914062 24.296875 C1.39977043 17.27702891 0.49277279 11.06280405 -1.56323242 4.33691406 C-1.70736572 3.56573242 -1.85149902 2.79455078 -2 2 C-1.34 1.34 -0.68 0.68 0 0 Z " fill="#445658" transform="translate(204,81)"/>
<path d="M0 0 C2.9375 0.8125 2.9375 0.8125 4.9375 2.8125 C4.36057692 9.38942308 4.36057692 9.38942308 2.9375 10.8125 C-0.5 11 -0.5 11 -4.0625 10.8125 C-6.0625 8.8125 -6.0625 8.8125 -6.375 5.875 C-6.0625 2.8125 -6.0625 2.8125 -4.9375 0.875 C-3.0625 -0.1875 -3.0625 -0.1875 0 0 Z " fill="#0F1010" transform="translate(152.0625,232.1875)"/>
<path d="M0 0 C2.12472576 -0.05386629 4.24983652 -0.09273071 6.375 -0.125 C7.55835938 -0.14820313 8.74171875 -0.17140625 9.9609375 -0.1953125 C13 0 13 0 15 2 C14.67 3.65 14.34 5.3 14 7 C9.38 7 4.76 7 0 7 C0 4.69 0 2.38 0 0 Z " fill="#F3F3F3" transform="translate(192,201)"/>
<path d="M0 0 C-2.6407317 2.12445382 -4.98313477 3.53082651 -8.1875 4.625 C-10.82885507 5.43232047 -10.82885507 5.43232047 -13 7 C-15.01964199 7.07244053 -17.04167124 7.08377188 -19.0625 7.0625 C-20.16722656 7.05347656 -21.27195313 7.04445312 -22.41015625 7.03515625 C-23.69212891 7.01775391 -23.69212891 7.01775391 -25 7 C-25 6.34 -25 5.68 -25 5 C-17.55480733 -1.6531509 -9.40612105 -0.48099483 0 0 Z " fill="#FFCE00" transform="translate(158,136)"/>
<path d="M0 0 C5.12177926 0.61780217 9.8915452 1.64511118 14.8125 3.1875 C15.47958984 3.37119141 16.14667969 3.55488281 16.83398438 3.74414062 C18.76953125 4.35546875 18.76953125 4.35546875 22 6 C23.44921875 9.17578125 23.44921875 9.17578125 24 12 C21.03 11.67 18.06 11.34 15 11 C15 10.34 15 9.68 15 9 C12.03 8.505 12.03 8.505 9 8 C8.938125 7.071875 8.938125 7.071875 8.875 6.125 C8.58625 5.42375 8.2975 4.7225 8 4 C5.07085835 2.82917122 5.07085835 2.82917122 2 2 C1.34 1.34 0.68 0.68 0 0 Z " fill="#D40200" transform="translate(99,164)"/>
<path d="M0 0 C2 3.75 2 3.75 2 6 C2.99 6.33 3.98 6.66 5 7 C3.58774074 7.67595315 2.16997095 8.34040059 0.75 9 C-0.43335938 9.556875 -0.43335938 9.556875 -1.640625 10.125 C-4 11 -4 11 -8 11 C-8 10.34 -8 9.68 -8 9 C-9.98 9.33 -11.96 9.66 -14 10 C-14.33 10.99 -14.66 11.98 -15 13 C-15.99 12.67 -16.98 12.34 -18 12 C-18 10.02 -18 8.04 -18 6 C-10.08 5.505 -10.08 5.505 -2 5 C-1.34 3.35 -0.68 1.7 0 0 Z " fill="#011124" transform="translate(172,76)"/>
<path d="M0 0 C0 5.28 0 10.56 0 16 C-4.77737198 14.08905121 -6.62722811 12.66186662 -10 9 C-9.06725891 7.87105124 -8.12859878 6.74699124 -7.1875 5.625 C-6.66542969 4.99851562 -6.14335937 4.37203125 -5.60546875 3.7265625 C-2.14027149 0 -2.14027149 0 0 0 Z " fill="#FFC507" transform="translate(166,59)"/>
<path d="M0 0 C12.14259443 0.30150912 26.26740517 5.11540065 35.0625 13.8125 C36.0215625 14.8953125 36.0215625 14.8953125 37 16 C33.54531142 15.67612295 31.26742974 14.63465049 28.4375 12.75 C20.92998868 7.87223841 12.83516814 4.73217441 3.9609375 3.5546875 C2 3 2 3 0 0 Z " fill="#F0ED9E" transform="translate(139,37)"/>
<path d="M0 0 C-0.66 4.29 -1.32 8.58 -2 13 C-2.33 13 -2.66 13 -3 13 C-3.33 11.02 -3.66 9.04 -4 7 C-5.299375 7.144375 -6.59875 7.28875 -7.9375 7.4375 C-8.66839844 7.51871094 -9.39929688 7.59992188 -10.15234375 7.68359375 C-12.01140229 7.81886614 -12.01140229 7.81886614 -13 9 C-15.53049402 9.07313567 -18.03304837 9.09247527 -20.5625 9.0625 C-21.62887695 9.05573242 -21.62887695 9.05573242 -22.71679688 9.04882812 C-24.47790013 9.03700864 -26.23896036 9.01907263 -28 9 C-28 8.01 -28 7.02 -28 6 C-26.04707031 5.97873047 -26.04707031 5.97873047 -24.0546875 5.95703125 C-22.32809034 5.91011285 -20.60152893 5.86186556 -18.875 5.8125 C-17.59109375 5.80379883 -17.59109375 5.80379883 -16.28125 5.79492188 C-9.50382213 5.5603186 -5.59378203 0 0 0 Z " fill="#FE2200" transform="translate(165,139)"/>
<path d="M0 0 C-7.67435351 7.88752999 -7.67435351 7.88752999 -12.453125 8.29296875 C-13.70609375 8.25816406 -14.9590625 8.22335938 -16.25 8.1875 C-17.51328125 8.16042969 -18.7765625 8.13335937 -20.078125 8.10546875 C-21.04234375 8.07066406 -22.0065625 8.03585938 -23 8 C-16.0378481 2.11370461 -9.12380072 -0.67583709 0 0 Z " fill="#FFF800" transform="translate(166,136)"/>
<path d="M0 0 C-0.33 0.99 -0.66 1.98 -1 3 C-3.66796875 3.703125 -3.66796875 3.703125 -7.1875 4.25 C-14.20524105 5.58329912 -19.61923394 8.02980945 -25.84375 11.4765625 C-28.97794326 12.9893538 -31.55967205 13.61658996 -35 14 C-26.95225001 5.02518077 -11.90854083 -0.36608534 0 0 Z " fill="#E2E03C" transform="translate(123,37)"/>
<path d="M0 0 C4.29 0 8.58 0 13 0 C13 2.31 13 4.62 13 7 C8.71 7 4.42 7 0 7 C0 4.69 0 2.38 0 0 Z " fill="#070808" transform="translate(163,219)"/>
<path d="M0 0 C0.33 0 0.66 0 1 0 C1.66 2.31 2.32 4.62 3 7 C6.3 7 9.6 7 13 7 C11.76302083 8.953125 10.52604167 10.90625 9.2890625 12.859375 C8.08119094 14.86517383 7.01612263 16.89178296 6 19 C-1.5 9.49107143 -1.5 9.49107143 -1.5 5 C-1 2 -1 2 0 0 Z " fill="#F40500" transform="translate(62,102)"/>
<path d="M0 0 C5.28 0.33 10.56 0.66 16 1 C14 5 14 5 13 6 C16.96 6.33 20.92 6.66 25 7 C25 7.33 25 7.66 25 8 C8.93592677 9.07093822 8.93592677 9.07093822 4.24609375 6.4765625 C0 2.13295929 0 2.13295929 0 0 Z " fill="#FFF002" transform="translate(98,60)"/>
<path d="M0 0 C0.33 0 0.66 0 1 0 C1.61914875 3.44954305 1.3542827 5.45392516 -0.55859375 8.40234375 C-2.32308545 10.64967423 -4.12335402 12.84568701 -6 15 C-6.39832031 14.15695313 -6.39832031 14.15695313 -6.8046875 13.296875 C-8.09331034 10.82069778 -9.56130361 8.56155118 -11.125 6.25 C-11.66382813 5.45078125 -12.20265625 4.6515625 -12.7578125 3.828125 C-13.16773438 3.22484375 -13.57765625 2.6215625 -14 2 C-13.01 2.33 -12.02 2.66 -11 3 C-5.69487331 3.61165868 -5.69487331 3.61165868 -1.0625 1.5 C-0.711875 1.005 -0.36125 0.51 0 0 Z " fill="#F30900" transform="translate(200,106)"/>
<path d="M0 0 C2.375 0.3125 2.375 0.3125 5 1 C5.66 1.99 6.32 2.98 7 4 C7.33 2.68 7.66 1.36 8 0 C8.99 0 9.98 0 11 0 C11 3.3 11 6.6 11 10 C7.16263678 9.04065919 6.40339772 8.76390737 4 6 C3.67 7.32 3.34 8.64 3 10 C2.01 10 1.02 10 0 10 C0 6.7 0 3.4 0 0 Z " fill="#1F2122" transform="translate(164,233)"/>
<path d="M0 0 C4.29 0 8.58 0 13 0 C13.33 1.65 13.66 3.3 14 5 C13 6 13 6 10.05859375 6.09765625 C8.26615234 6.08025391 8.26615234 6.08025391 6.4375 6.0625 C4.64119141 6.04896484 4.64119141 6.04896484 2.80859375 6.03515625 C1.88175781 6.02355469 0.95492187 6.01195312 0 6 C0 4.02 0 2.04 0 0 Z " fill="#D6D7D8" transform="translate(133,213)"/>
<path d="M0 0 C17.16 0 34.32 0 52 0 C52 0.33 52 0.66 52 1 C35.83 1.33 19.66 1.66 3 2 C2.67 9.92 2.34 17.84 2 26 C1.67 26 1.34 26 1 26 C0.67 17.42 0.34 8.84 0 0 Z " fill="#FF9503" transform="translate(105,68)"/>
<path d="M0 0 C4.29 0 8.58 0 13 0 C13.33 1.65 13.66 3.3 14 5 C9.38 5 4.76 5 0 5 C0 3.35 0 1.7 0 0 Z " fill="#F0F1F1" transform="translate(133,201)"/>
<path d="M0 0 C1.32 0 2.64 0 4 0 C4 0.66 4 1.32 4 2 C4.66 2 5.32 2 6 2 C6.33 2.99 6.66 3.98 7 5 C7.9075 5.103125 8.815 5.20625 9.75 5.3125 C13 6 13 6 17 9 C11.72 9 6.44 9 1 9 C-0.4783226 6.04335481 -0.06032783 3.25770263 0 0 Z " fill="#010012" transform="translate(123,83)"/>
<path d="M0 0 C0.33 0 0.66 0 1 0 C1.09796875 0.65484375 1.1959375 1.3096875 1.296875 1.984375 C2.96300839 12.15353399 5.6574802 21.47209439 11.14453125 30.2578125 C11.42683594 30.83273438 11.70914063 31.40765625 12 32 C11.67 32.66 11.34 33.32 11 34 C8.99111039 30.67193954 6.99356179 27.33726152 5 24 C4.5978125 23.33613281 4.195625 22.67226562 3.78125 21.98828125 C-0.851211 14.17977691 -1.16349561 8.83627744 0 0 Z " fill="#0A1B33" transform="translate(56,113)"/>
<path d="M0 0 C7.02952752 0.4535179 12.5849443 2.12059087 19 5 C19 6.32 19 7.64 19 9 C18.46632812 8.81824219 17.93265625 8.63648438 17.3828125 8.44921875 C11.62408217 6.5063945 5.83006078 4.71615568 0 3 C0 2.01 0 1.02 0 0 Z " fill="#EE9A07" transform="translate(142,40)"/>
<path d="M0 0 C3.60953489 3.07478898 5.47587507 6.51089954 7.55859375 10.68359375 C9.36180067 13.58143034 11.5305693 15.64345756 14 18 C15.0404175 19.03509652 16.07807413 20.0729738 17.11328125 21.11328125 C17.63857422 21.63857422 18.16386719 22.16386719 18.70507812 22.70507812 C21.13671875 25.13671875 23.56835938 27.56835938 26 30 C23 30 23 30 20.6953125 27.953125 C19.84710938 27.06109375 18.99890625 26.1690625 18.125 25.25 C15.64884719 22.66026219 13.33431338 20.2467673 10.44921875 18.1171875 C7.3208207 15.41289445 5.64369137 12.47557993 3.6875 8.875 C3.32849609 8.24207031 2.96949219 7.60914063 2.59960938 6.95703125 C0 2.29258929 0 2.29258929 0 0 Z " fill="#050C23" transform="translate(58,133)"/>
<path d="M0 0 C-2.30786664 1.95281024 -4.01074381 3.00320028 -6.9375 3.875 C-10.65485828 5.24056018 -12.36122366 7.08345773 -15 10 C-17.33333333 12.33333333 -19.66666667 14.66666667 -22 17 C-22.66 16.67 -23.32 16.34 -24 16 C-19.67813252 10.82426813 -15.24043361 6.2397478 -10 2 C-9.319375 1.360625 -8.63875 0.72125 -7.9375 0.0625 C-5.09275199 -1.4975231 -3.05330395 -0.76332599 0 0 Z " fill="#F77F00" transform="translate(101,49)"/>
<path d="M0 0 C0.99 0 1.98 0 3 0 C3 2.64 3 5.28 3 8 C4.32 8 5.64 8 7 8 C7 5.36 7 2.72 7 0 C7.99 0 8.98 0 10 0 C10.1953125 6.0546875 10.1953125 6.0546875 10 8 C8 10 8 10 5 10.25 C2 10 2 10 0 8 C-0.26991906 5.31160615 -0.08737357 2.70858064 0 0 Z " fill="#1D1E1F" transform="translate(104,233)"/>
<path d="M0 0 C0.53625 0.226875 1.0725 0.45375 1.625 0.6875 C-0.04166667 2.35416667 -1.70833333 4.02083333 -3.375 5.6875 C-4.261875 6.615625 -5.14875 7.54375 -6.0625 8.5 C-8.375 10.6875 -8.375 10.6875 -10.375 10.6875 C-10.375 7.3875 -10.375 4.0875 -10.375 0.6875 C-9.715 1.3475 -9.055 2.0075 -8.375 2.6875 C-7.01375 1.9140625 -7.01375 1.9140625 -5.625 1.125 C-2.375 -0.3125 -2.375 -0.3125 0 0 Z " fill="#FB8F00" transform="translate(182.375,147.3125)"/>
<path d="M0 0 C0.33 1.65 0.66 3.3 1 5 C-4.28 5 -9.56 5 -15 5 C-9.75693899 1.06770424 -6.55461445 -0.30486579 0 0 Z " fill="#2D4340" transform="translate(120,47)"/>
<path d="M0 0 C4.8274799 1.41292095 8.7162359 3.42974154 13 6 C13 7.98 13 9.96 13 12 C9.34435261 10.46563424 7.01301377 8.25017578 4.25 5.4375 C3.45078125 4.63183594 2.6515625 3.82617188 1.828125 2.99609375 C0 1 0 1 0 0 Z " fill="#F44200" transform="translate(77,146)"/>
<path d="M0 0 C-0.804375 0.474375 -1.60875 0.94875 -2.4375 1.4375 C-6.42703944 4.05622613 -9.51540563 7.50138001 -12.75390625 10.9765625 C-15.09210367 13.08297339 -17.03007241 14.02916251 -20 15 C-7.90697674 -2.63565891 -7.90697674 -2.63565891 0 0 Z " fill="#ECE316" transform="translate(93,51)"/>
<path d="M0 0 C1.98 0 3.96 0 6 0 C6 0.66 6 1.32 6 2 C4.35 2 2.7 2 1 2 C1 2.66 1 3.32 1 4 C3.97 4.495 3.97 4.495 7 5 C6.67 6.65 6.34 8.3 6 10 C3.69 10 1.38 10 -1 10 C-1 9.01 -1 8.02 -1 7 C0.65 7.33 2.3 7.66 4 8 C4 7.34 4 6.68 4 6 C2.35 5.67 0.7 5.34 -1 5 C-0.67 3.35 -0.34 1.7 0 0 Z " fill="#0F1011" transform="translate(123,233)"/>
<path d="M0 0 C3.96 0 7.92 0 12 0 C12.33 0.99 12.66 1.98 13 3 C8.126739 4.5912689 4.19209404 5.21192221 -1 5 C-0.67 3.35 -0.34 1.7 0 0 Z " fill="#D30000" transform="translate(142,170)"/>
<path d="M0 0 C5.66104589 0.49658297 9.87674471 1.54510684 15 4 C15 4.33 15 4.66 15 5 C9.72 5 4.44 5 -1 5 C-0.67 3.35 -0.34 1.7 0 0 Z " fill="#354841" transform="translate(142,47)"/>
<path d="M0 0 C2.625 0.375 2.625 0.375 5 1 C5.625 3.375 5.625 3.375 6 6 C5.34 6.66 4.68 7.32 4 8 C1.375 7.625 1.375 7.625 -1 7 C-1.625 4.625 -1.625 4.625 -2 2 C-1.34 1.34 -0.68 0.68 0 0 Z " fill="#ED6701" transform="translate(178,121)"/>
<path d="M0 0 C1.125 4.75 1.125 4.75 0 7 C-2.375 7.125 -2.375 7.125 -5 7 C-5.66 6.34 -6.32 5.68 -7 5 C-6.75 2.4375 -6.75 2.4375 -6 0 C-3.50907189 -1.24546405 -2.58919267 -0.7767578 0 0 Z " fill="#E84A00" transform="translate(84,90)"/>
<path d="M0 0 C0.66 0.66 1.32 1.32 2 2 C1.54581717 6.05880842 0.1545765 9.92570729 -1.0625 13.8125 C-1.42472656 14.97394531 -1.78695312 16.13539062 -2.16015625 17.33203125 C-2.43730469 18.21246094 -2.71445312 19.09289062 -3 20 C-3.66 20 -4.32 20 -5 20 C-4.68676801 12.63904818 -3.06085395 6.69116911 0 0 Z " fill="#7C836F" transform="translate(60,74)"/>
<path d="M0 0 C3.3063908 0.55106513 6.19982126 1.09987871 9 3 C9.75 5.125 9.75 5.125 10 7 C12.97 7.495 12.97 7.495 16 8 C12.94255252 9.35114472 11.77959635 8.9224598 8.546875 7.78515625 C7.27604557 7.22254947 6.01048782 6.64790949 4.75 6.0625 C4.1003125 5.77181641 3.450625 5.48113281 2.78125 5.18164062 C1.18284785 4.46471025 -0.40923054 3.73371051 -2 3 C-1.34 2.67 -0.68 2.34 0 2 C0 1.34 0 0.68 0 0 Z " fill="#D10300" transform="translate(98,165)"/>
<path d="M0 0 C4.26429585 6.39644377 4.27018742 12.53982506 4 20 C3.34 20 2.68 20 2 20 C1.51990738 17.93771534 1.04096456 15.87516299 0.5625 13.8125 C0.29566406 12.66394531 0.02882812 11.51539062 -0.24609375 10.33203125 C-0.49488281 9.23246094 -0.74367187 8.13289063 -1 7 C-1.23847656 6.07574219 -1.47695312 5.15148437 -1.72265625 4.19921875 C-1.81417969 3.47347656 -1.90570313 2.74773437 -2 2 C-1.34 1.34 -0.68 0.68 0 0 Z " fill="#79836F" transform="translate(204,81)"/>
<path d="M0 0 C4.26597313 4.87539786 7.78149659 9.94095224 8.25 16.5 C8.1675 17.325 8.085 18.15 8 19 C5.05471231 16.4361803 3.51133441 13.52104256 1.75 10.0625 C1.20859375 9.02222656 0.6671875 7.98195313 0.109375 6.91015625 C-1.02291478 3.93988906 -1.19234985 2.87689064 0 0 Z " fill="#CED19C" transform="translate(196,65)"/>
<path d="M0 0 C0.33 0 0.66 0 1 0 C2.55702624 7.80205539 1.65593331 13.88191077 -2 21 C-2.66 21.33 -3.32 21.66 -4 22 C-3.32692542 16.97481209 -2.45601155 12.02835295 -1.4375 7.0625 C-1.29892578 6.37865234 -1.16035156 5.69480469 -1.01757812 4.99023438 C-0.68016936 3.32646014 -0.34034121 1.66317685 0 0 Z " fill="#213945" transform="translate(205,115)"/>
<path d="M0 0 C1.98 1.65 3.96 3.3 6 5 C5.01 5.33 4.02 5.66 3 6 C2.34 5.67 1.68 5.34 1 5 C2.22053859 8.66161578 3.36782304 9.16270474 6.5625 11.1875 C7.80193359 11.98220703 7.80193359 11.98220703 9.06640625 12.79296875 C9.70449219 13.19128906 10.34257812 13.58960937 11 14 C10.67 14.99 10.34 15.98 10 17 C6.3029185 15.00621676 2.98289099 12.97765785 0 10 C-0.86003313 6.51433631 -0.63609586 3.51266272 0 0 Z " fill="#E16403" transform="translate(172,55)"/>
<path d="M0 0 C5.91898736 1.01055882 8.23105663 4.27760038 11.6796875 8.80859375 C13 11 13 11 13 14 C9.43304409 12.8110147 8.71284174 11.65251382 6.5 8.6875 C5.9121875 7.90761719 5.324375 7.12773438 4.71875 6.32421875 C4.1515625 5.55722656 3.584375 4.79023437 3 4 C2.00036354 2.66639409 1.00048798 1.33296721 0 0 Z " fill="#DFDFB7" transform="translate(183,53)"/>
<path d="M0 0 C5.28 0.33 10.56 0.66 16 1 C16 1.99 16 2.98 16 4 C11.71 4 7.42 4 3 4 C3 3.01 3 2.02 3 1 C2.01 0.67 1.02 0.34 0 0 Z " fill="#FFFE90" transform="translate(141,63)"/>
<path d="M0 0 C5.5952381 0.5952381 5.5952381 0.5952381 8 3 C8 3.99 8 4.98 8 6 C4.37 5.67 0.74 5.34 -3 5 C-1 1 -1 1 0 0 Z " fill="#EEE00C" transform="translate(129,160)"/>
<path d="M0 0 C0.99 0 1.98 0 3 0 C3.14505175 3.43705705 3.23398014 6.87333033 3.3125 10.3125 C3.35439453 11.28896484 3.39628906 12.26542969 3.43945312 13.27148438 C3.48526849 15.93793866 3.4882833 18.37713857 3 21 C0.48046875 23.16796875 0.48046875 23.16796875 -2 24 C-2.66 22.35 -3.32 20.7 -4 19 C-2.35 18.67 -0.7 18.34 1 18 C1.02690844 15.37493198 1.04679404 12.75013827 1.0625 10.125 C1.07087891 9.37863281 1.07925781 8.63226563 1.08789062 7.86328125 C1.20688084 3.80154422 1.20688084 3.80154422 0 0 Z " fill="#070D1C" transform="translate(87,70)"/>
<path d="M0 0 C2.64 0 5.28 0 8 0 C8 0.66 8 1.32 8 2 C6.02 2 4.04 2 2 2 C2 2.66 2 3.32 2 4 C3.65 4 5.3 4 7 4 C7 4.66 7 5.32 7 6 C5.35 6 3.7 6 2 6 C2 7.32 2 8.64 2 10 C1.34 10 0.68 10 0 10 C0 6.7 0 3.4 0 0 Z " fill="#0A0A0B" transform="translate(89,233)"/>
<path d="M0 0 C5.94 0.99 5.94 0.99 12 2 C12.33 1.34 12.66 0.68 13 0 C13 1.65 13 3.3 13 5 C8.66666667 5 4.33333333 5 0 5 C0 3.35 0 1.7 0 0 Z " fill="#EA5900" transform="translate(125,164)"/>
<path d="M0 0 C4.62 0 9.24 0 14 0 C12.35 1.65 10.7 3.3 9 5 C6.03 4.01 3.06 3.02 0 2 C0 1.34 0 0.68 0 0 Z " fill="#FFFEEC" transform="translate(152,58)"/>
<path d="M0 0 C0.66 0.66 1.32 1.32 2 2 C0.23050388 2.50471197 -1.54065223 3.00360685 -3.3125 3.5 C-4.79169922 3.91765625 -4.79169922 3.91765625 -6.30078125 4.34375 C-9 5 -9 5 -12 5 C-12 4.34 -12 3.68 -12 3 C-12.66 2.67 -13.32 2.34 -14 2 C-12.42085985 1.46658816 -10.83645613 0.94874237 -9.25 0.4375 C-8.36828125 0.14746094 -7.4865625 -0.14257812 -6.578125 -0.44140625 C-3.87836841 -1.02635351 -2.54246395 -1.01145848 0 0 Z " fill="#CACBBD" transform="translate(117,32)"/>
<path d="M0 0 C1.12894876 0.93274109 2.25300876 1.87140122 3.375 2.8125 C4.00148438 3.33457031 4.62796875 3.85664062 5.2734375 4.39453125 C7 6 7 6 9 9 C5.65747276 9.07427838 3.1964086 9.06546953 0 8 C0 5.36 0 2.72 0 0 Z " fill="#FF7D00" transform="translate(96,59)"/>
<path d="M0 0 C0.33 1.98 0.66 3.96 1 6 C-0.65 6.33 -2.3 6.66 -4 7 C-4 6.34 -4 5.68 -4 5 C-4.66 5 -5.32 5 -6 5 C-6 3.68 -6 2.36 -6 1 C-4 0 -4 0 0 0 Z " fill="#EF9F38" transform="translate(84,121)"/>
<path d="M0 0 C-0.33 0.99 -0.66 1.98 -1 3 C-3.28940956 3.38854209 -5.58164574 3.7604628 -7.875 4.125 C-9.78925781 4.43824219 -9.78925781 4.43824219 -11.7421875 4.7578125 C-13.35480469 4.87769531 -13.35480469 4.87769531 -15 5 C-15.66 4.34 -16.32 3.68 -17 3 C-15.10614563 2.49255577 -13.20981334 1.99435426 -11.3125 1.5 C-9.72888672 1.08234375 -9.72888672 1.08234375 -8.11328125 0.65625 C-5.28857328 0.0608285 -2.87163292 -0.12786492 0 0 Z " fill="#DDDD8B" transform="translate(123,37)"/>
<path d="M0 0 C2.41015625 0.07421875 2.41015625 0.07421875 5.0625 0.6875 C6.37927734 0.97173828 6.37927734 0.97173828 7.72265625 1.26171875 C10 2 10 2 12 4 C11.67 4.66 11.34 5.32 11 6 C6.38 5.01 1.76 4.02 -3 3 C-2.01 2.01 -1.02 1.02 0 0 Z " fill="#D6D7D4" transform="translate(146,31)"/>
<path d="M0 0 C4.67248931 2.82522609 7.65996398 5.67760044 11 10 C10.67 10.66 10.34 11.32 10 12 C8.25 11.875 8.25 11.875 6 11 C3.875 8.0625 3.875 8.0625 2 5 C1.34 4.34 0.68 3.68 0 3 C0 2.01 0 1.02 0 0 Z " fill="#F77800" transform="translate(183,70)"/>
<path d="M0 0 C0.66 0.99 1.32 1.98 2 3 C0.88407791 5.00507927 -0.24298712 7.00396096 -1.375 9 C-2.31472656 10.670625 -2.31472656 10.670625 -3.2734375 12.375 C-3.84320313 13.24125 -4.41296875 14.1075 -5 15 C-5.66 15 -6.32 15 -7 15 C-6.42176904 10.93774452 -5.10882263 8.15237654 -2.9375 4.6875 C-2.38964844 3.80449219 -1.84179688 2.92148437 -1.27734375 2.01171875 C-0.64505859 1.01591797 -0.64505859 1.01591797 0 0 Z " fill="#BBBB90" transform="translate(68,61)"/>
<path d="M0 0 C-1 2 -1 2 -3.73046875 3.0703125 C-4.87128906 3.41835937 -6.01210937 3.76640625 -7.1875 4.125 C-8.31542969 4.47820312 -9.44335938 4.83140625 -10.60546875 5.1953125 C-13.88026362 5.971616 -16.6510963 6.15245389 -20 6 C-20 5.67 -20 5.34 -20 5 C-19.32453125 4.80664062 -18.6490625 4.61328125 -17.953125 4.4140625 C-16.61507812 4.02347656 -16.61507812 4.02347656 -15.25 3.625 C-14.36828125 3.36976563 -13.4865625 3.11453125 -12.578125 2.8515625 C-10.02412356 2.08216295 -10.02412356 2.08216295 -7.875 0.90625 C-5.2308961 -0.37173355 -2.89078554 -0.13139934 0 0 Z " fill="#E15700" transform="translate(163,164)"/>
<path d="M0 0 C0.66 0 1.32 0 2 0 C2 5.61 2 11.22 2 17 C1.01 16.34 0.02 15.68 -1 15 C-1.46271324 10.18778226 -0.74817615 6.47970138 1 2 C0.34 1.67 -0.32 1.34 -1 1 C-0.67 0.67 -0.34 0.34 0 0 Z " fill="#FF9D00" transform="translate(164,137)"/>
<path d="M0 0 C0.495 0.804375 0.99 1.60875 1.5 2.4375 C4.95695939 5.98088338 7.14788209 5.7573941 12 6 C11.01 7.485 11.01 7.485 10 9 C6.5625 9.4375 6.5625 9.4375 3 9 C1.0625 7.3125 1.0625 7.3125 0 5 C-0.1875 2.25 -0.1875 2.25 0 0 Z " fill="#E83A00" transform="translate(125,43)"/>
<path d="M0 0 C0.66 0 1.32 0 2 0 C2 5.28 2 10.56 2 16 C1.01 15.67 0.02 15.34 -1 15 C-1.19294408 10.17639811 -0.75747614 6.50353262 1 2 C0.34 1.67 -0.32 1.34 -1 1 C-0.67 0.67 -0.34 0.34 0 0 Z " fill="#FFC700" transform="translate(164,99)"/>
<path d="M0 0 C4.35354956 0.49558795 6.30066031 1.80087599 9.3125 4.9375 C10.00988281 5.64777344 10.70726562 6.35804687 11.42578125 7.08984375 C13 9 13 9 13 11 C9.49565146 10.43990974 8.12047667 9.38428252 5.9375 6.625 C4.05751376 4.28125058 2.16099168 2.09045486 0 0 Z " fill="#E4E15C" transform="translate(174,53)"/>
<path d="M0 0 C0.66 0.33 1.32 0.66 2 1 C1.88628503 3.29225435 1.75869036 5.58382388 1.625 7.875 C1.55539063 9.15117188 1.48578125 10.42734375 1.4140625 11.7421875 C1 15 1 15 -1 17 C-1.66 17 -2.32 17 -3 17 C-3 14.69 -3 12.38 -3 10 C-2.34 10 -1.68 10 -1 10 C-0.67 6.7 -0.34 3.4 0 0 Z " fill="#FF2900" transform="translate(99,75)"/>
<path d="M0 0 C1.3271261 3.9813783 1.06915913 7.85045227 1 12 C3.31 12.33 5.62 12.66 8 13 C8 13.33 8 13.66 8 14 C0.6971831 14.35915493 0.6971831 14.35915493 -2.0625 12.9375 C-3.58469758 9.79162501 -2.75782126 7.32275476 -2 4 C-0.9375 1.5625 -0.9375 1.5625 0 0 Z " fill="#EEAD03" transform="translate(129,35)"/>
<path d="M0 0 C-1 3 -1 3 -2.9609375 4.203125 C-3.75757812 4.54859375 -4.55421875 4.8940625 -5.375 5.25 C-6.56222656 5.78367187 -6.56222656 5.78367187 -7.7734375 6.328125 C-10 7 -10 7 -13 6 C-9.43216717 1.83752837 -5.4396369 0 0 0 Z " fill="#E6E7CD" transform="translate(105,35)"/>
<path d="M0 0 C0.33 0.99 0.66 1.98 1 3 C-1.15343189 6.23014784 -2.27059611 7.75686537 -6 9 C-7.37195574 10.29355827 -8.71182656 11.62298702 -10 13 C-8.51082643 8.08572721 -5.55813338 4.59680874 -2 1 C-1.34 0.67 -0.68 0.34 0 0 Z " fill="#F85E00" transform="translate(77,71)"/>
<path d="M0 0 C6.95023264 0.64653327 13.38177303 2.86027248 20 5 C20 5.33 20 5.66 20 6 C12.513226 5.7201206 6.63729312 4.52350129 0 1 C0 0.67 0 0.34 0 0 Z " fill="#EA5800" transform="translate(99,164)"/>
<path d="M0 0 C0.66 0.33 1.32 0.66 2 1 C2.48648649 8.2972973 2.48648649 8.2972973 0.3125 11.4375 C-2.18625279 13.12584648 -4.02247554 13.66916395 -7 14 C-6.57847656 13.57589844 -6.15695313 13.15179688 -5.72265625 12.71484375 C-1.76753928 8.48054205 -0.2371383 5.80988828 0 0 Z " fill="#EFED9E" transform="translate(193,94)"/>
<path d="M0 0 C7.26 0 14.52 0 22 0 C20.68 1.32 19.36 2.64 18 4 C17.01 4 16.02 4 15 4 C15 3.01 15 2.02 15 1 C10.05 1 5.1 1 0 1 C0 0.67 0 0.34 0 0 Z " fill="#FFFE4F" transform="translate(144,98)"/>
<path d="M0 0 C2.07803895 1.8769384 3.7407491 3.48149821 5 6 C5 8 5 8 3.0625 10.25 C2.381875 10.8275 1.70125 11.405 1 12 C0.34 11.67 -0.32 11.34 -1 11 C-0.9278125 10.37351562 -0.855625 9.74703125 -0.78125 9.1015625 C-0.6884375 8.28429687 -0.595625 7.46703125 -0.5 6.625 C-0.4071875 5.81289062 -0.314375 5.00078125 -0.21875 4.1640625 C0.03352351 2.03087175 0.03352351 2.03087175 0 0 Z " fill="#F27A00" transform="translate(196,98)"/>
<path d="M0 0 C0.33 0 0.66 0 1 0 C1.02578125 0.66386719 1.0515625 1.32773438 1.078125 2.01171875 C1.43351002 7.54441741 1.83118278 10.96566075 6 15 C3.50289018 14.65557106 2.17845335 14.15296001 0.25 12.5 C-1.60777703 8.78444595 -1.4312315 5.08840632 -1 1 C-0.67 0.67 -0.34 0.34 0 0 Z " fill="#CECD83" transform="translate(69,92)"/>
<path d="M0 0 C3.96 0 7.92 0 12 0 C12 0.66 12 1.32 12 2 C14.31 2.66 16.62 3.32 19 4 C19 4.99 19 5.98 19 7 C16.79729267 5.93943721 14.85122324 4.89060532 12.875 3.4375 C8.72406272 1.36203136 4.58590757 1.25823557 0 1 C0 0.67 0 0.34 0 0 Z " fill="#FFFEC3" transform="translate(140,58)"/>
<path d="M0 0 C6.33393082 -0.34548714 11.10261508 0.70657253 17 3 C17 3.66 17 4.32 17 5 C15.68 5.33 14.36 5.66 13 6 C13 5.34 13 4.68 13 4 C12.236875 3.855625 11.47375 3.71125 10.6875 3.5625 C8 3 8 3 5 2 C3.33637583 1.65179959 1.67004829 1.31595508 0 1 C0 0.67 0 0.34 0 0 Z " fill="#FFFF12" transform="translate(131,99)"/>
<path d="M0 0 C1.98 0 3.96 0 6 0 C6.33 1.32 6.66 2.64 7 4 C6.01 4 5.02 4 4 4 C3.67 4.99 3.34 5.98 3 7 C2.01 6.67 1.02 6.34 0 6 C0 4.02 0 2.04 0 0 Z " fill="#4F3F23" transform="translate(154,82)"/>
<path d="M0 0 C0.33 0 0.66 0 1 0 C1 5.28 1 10.56 1 16 C0.01 15.67 -0.98 15.34 -2 15 C-1.47462276 9.9697924 -0.89405214 4.98114761 0 0 Z " fill="#FFFB00" transform="translate(165,59)"/>
<path d="M0 0 C0.33 0 0.66 0 1 0 C1.33895656 1.72807318 1.67091525 3.45751974 2 5.1875 C2.185625 6.15042969 2.37125 7.11335938 2.5625 8.10546875 C2.96877612 10.7934206 3.07933572 13.28771019 3 16 C2.34 16 1.68 16 1 16 C-0.86665742 12.10281829 -1.13965761 9.45915815 -0.625 5.1875 C-0.51414063 4.21167969 -0.40328125 3.23585938 -0.2890625 2.23046875 C-0.19367187 1.49441406 -0.09828125 0.75835937 0 0 Z " fill="#11283C" transform="translate(56,113)"/>
<path d="M0 0 C1.62490954 -0.02698189 3.24994633 -0.04638757 4.875 -0.0625 C5.77992188 -0.07410156 6.68484375 -0.08570313 7.6171875 -0.09765625 C10 0 10 0 12 1 C12 2.32 12 3.64 12 5 C10.56068883 4.54738642 9.12361001 4.08767021 7.6875 3.625 C6.88699219 3.36976562 6.08648437 3.11453125 5.26171875 2.8515625 C3 2 3 2 0 0 Z " fill="#DA8302" transform="translate(149,44)"/>
<path d="M0 0 C5.53846154 -0.36923077 5.53846154 -0.36923077 7.875 1.5 C8.24625 1.995 8.6175 2.49 9 3 C8.360625 3.12375 7.72125 3.2475 7.0625 3.375 C6.381875 3.58125 5.70125 3.7875 5 4 C4.67 4.66 4.34 5.32 4 6 C3.01 5.67 2.02 5.34 1 5 C0.67 3.35 0.34 1.7 0 0 Z " fill="#E90100" transform="translate(94,161)"/>
<path d="M0 0 C0.33 0 0.66 0 1 0 C1.28875 1.11375 1.5775 2.2275 1.875 3.375 C2.69241329 7.00291092 2.69241329 7.00291092 5 9 C6.32 9 7.64 9 9 9 C9 9.66 9 10.32 9 11 C6.69 11.33 4.38 11.66 2 12 C0.40861915 7.82262526 -0.21278058 4.46839215 0 0 Z " fill="#FBBD18" transform="translate(67,97)"/>
<path d="M0 0 C3.36720387 1.39332574 4.9859524 2.9789286 7 6 C4 7 4 7 1 6 C0.67 4.02 0.34 2.04 0 0 Z " fill="#162F32" transform="translate(172,69)"/>
<path d="M0 0 C-0.33 0.99 -0.66 1.98 -1 3 C-4.96 3 -8.92 3 -13 3 C-8.72352613 0.14901742 -5.0682068 -0.14480591 0 0 Z " fill="#F5A80A" transform="translate(121,40)"/>
<path d="M0 0 C1.58409994 0.11487748 3.16728963 0.24234508 4.75 0.375 C6.07257813 0.47941406 6.07257813 0.47941406 7.421875 0.5859375 C9.99066382 0.99850055 11.75841015 1.71160957 14 3 C12.04233719 3.08082094 10.08373272 3.13910778 8.125 3.1875 C6.48917969 3.23970703 6.48917969 3.23970703 4.8203125 3.29296875 C3.88960937 3.19628906 2.95890625 3.09960938 2 3 C1.34 2.01 0.68 1.02 0 0 Z " fill="#D3D498" transform="translate(139,37)"/>
<path d="M0 0 C1.98 0.495 1.98 0.495 4 1 C3.67 2.65 3.34 4.3 3 6 C1.68 5.67 0.36 5.34 -1 5 C-0.67 3.35 -0.34 1.7 0 0 Z " fill="#E6E7E8" transform="translate(150,235)"/>
<path d="M0 0 C2.97 0.33 5.94 0.66 9 1 C9 1.99 9 2.98 9 4 C7.3125 4.8125 7.3125 4.8125 5 5 C2.25 2.5625 2.25 2.5625 0 0 Z " fill="#D50200" transform="translate(82,157)"/>
<path d="M0 0 C0.33 1.32 0.66 2.64 1 4 C-1.31 3.67 -3.62 3.34 -6 3 C-6 2.01 -6 1.02 -6 0 C-3.50907189 -1.24546405 -2.58919267 -0.7767578 0 0 Z " fill="#E9D744" transform="translate(84,90)"/>
<path d="M0 0 C1.66611905 -0.042721 3.33382885 -0.04063832 5 0 C6 1 6 1 6.0625 3.5625 C6.041875 4.366875 6.02125 5.17125 6 6 C4.68 5.67 3.36 5.34 2 5 C2 4.01 2 3.02 2 2 C1.34 2 0.68 2 0 2 C0 1.34 0 0.68 0 0 Z " fill="#604523" transform="translate(127,83)"/>
<path d="M0 0 C1.98 0 3.96 0 6 0 C6.33 1.65 6.66 3.3 7 5 C6.01 5 5.02 5 4 5 C4 4.34 4 3.68 4 3 C2.68 3 1.36 3 0 3 C0 2.01 0 1.02 0 0 Z " fill="#131C22" transform="translate(160,82)"/>
<path d="M0 0 C1.65 0.33 3.3 0.66 5 1 C5 2.98 5 4.96 5 7 C3.02 5.35 1.04 3.7 -1 2 C-0.67 1.34 -0.34 0.68 0 0 Z " fill="#FF5B00" transform="translate(157,106)"/>
<path d="M0 0 C2.31 0 4.62 0 7 0 C7 0.99 7 1.98 7 3 C7.66 3.33 8.32 3.66 9 4 C7.35 4.33 5.7 4.66 4 5 C4 4.01 4 3.02 4 2 C2.68 1.67 1.36 1.34 0 1 C0 0.67 0 0.34 0 0 Z " fill="#FFFD3A" transform="translate(152,99)"/>
<path d="M0 0 C0.66 0.33 1.32 0.66 2 1 C1 4 1 4 -2.0625 5.6875 C-3.031875 6.120625 -4.00125 6.55375 -5 7 C-5.66 6.34 -6.32 5.68 -7 5 C-4.69 3.35 -2.38 1.7 0 0 Z " fill="#DEDFBB" transform="translate(91,40)"/>
<path d="M0 0 C0.5625 1.9375 0.5625 1.9375 1 4 C0 5 0 5 -3.5625 5.0625 C-4.696875 5.041875 -5.83125 5.02125 -7 5 C-7 4.01 -7 3.02 -7 2 C-5.35 2.33 -3.7 2.66 -2 3 C-1.67 2.34 -1.34 1.68 -1 1 C-0.67 0.67 -0.34 0.34 0 0 Z " fill="#1F2121" transform="translate(129,238)"/>
<path d="M0 0 C6.76923077 3.44615385 6.76923077 3.44615385 7.9375 6.25 C7.958125 6.8275 7.97875 7.405 8 8 C4.63820226 6.55922954 2.40843732 4.75249979 0 2 C0 1.34 0 0.68 0 0 Z " fill="#F88000" transform="translate(82,150)"/>
<path d="M0 0 C0.99 0 1.98 0 3 0 C2.67 1.98 2.34 3.96 2 6 C1.67 5.34 1.34 4.68 1 4 C-1.31 4.66 -3.62 5.32 -6 6 C-4 4 -2 2 0 0 Z " fill="#FF4600" transform="translate(162,139)"/>
<path d="M0 0 C0 0.99 0 1.98 0 3 C-3.96 3 -7.92 3 -12 3 C-7.09396701 -0.67952474 -5.82490317 -0.29124516 0 0 Z " fill="#DEDFDA" transform="translate(127,30)"/>
<path d="M0 0 C0.66 1.32 1.32 2.64 2 4 C0.02 6.97 0.02 6.97 -2 10 C-2.6875 8.375 -2.6875 8.375 -3 6 C-1.5625 2.75 -1.5625 2.75 0 0 Z " fill="#07223B" transform="translate(200,135)"/>
<path d="M0 0 C1.32 1.32 2.64 2.64 4 4 C2.625 5.5 2.625 5.5 1 7 C0.34 7 -0.32 7 -1 7 C-2.625 5 -2.625 5 -4 3 C-2.68 2.01 -1.36 1.02 0 0 Z " fill="#C4C33B" transform="translate(179,78)"/>
<path d="M0 0 C1.98 0.66 3.96 1.32 6 2 C5.01 2.495 5.01 2.495 4 3 C4 3.66 4 4.32 4 5 C5.32 5.33 6.64 5.66 8 6 C4.28400809 6.20086443 3.22791555 6.1519437 0 4 C0 2.68 0 1.36 0 0 Z " fill="#ED8E04" transform="translate(161,46)"/>
<path d="M0 0 C3.21043882 1.38188453 5.04936365 2.92421903 7.25 5.625 C8.03117187 6.57246094 8.03117187 6.57246094 8.828125 7.5390625 C9.40820312 8.26222656 9.40820312 8.26222656 10 9 C9.01 9 8.02 9 7 9 C7 8.34 7 7.68 7 7 C6.401875 6.773125 5.80375 6.54625 5.1875 6.3125 C2.43648112 4.66188867 1.47515363 2.8027919 0 0 Z " fill="#00000F" transform="translate(69,152)"/>
<path d="M0 0 C0.99 0.33 1.98 0.66 3 1 C3 1.66 3 2.32 3 3 C6.465 2.505 6.465 2.505 10 2 C6.36576791 4.32590854 3.22911669 4.16265833 -1 4 C-0.67 2.68 -0.34 1.36 0 0 Z " fill="#FC6C00" transform="translate(66,106)"/>
<path d="M0 0 C0.96661363 3.12180401 0.98988909 5.52083795 0.5625 8.75 C0.40974609 9.94882813 0.40974609 9.94882813 0.25390625 11.171875 C0.12822266 12.07679687 0.12822266 12.07679687 0 13 C-0.66 13 -1.32 13 -2 13 C-1.85851011 11.3954444 -1.71164314 9.79136233 -1.5625 8.1875 C-1.48128906 7.29417969 -1.40007813 6.40085937 -1.31640625 5.48046875 C-1 3 -1 3 0 0 Z " fill="#5A6762" transform="translate(57,81)"/>
<path d="M0 0 C2.4294516 3.6441774 2.16179575 5.71241272 2 10 C-0.14210449 8.23043542 -0.96060573 7.12424348 -1.8125 4.4375 C-1.874375 3.633125 -1.93625 2.82875 -2 2 C-1.34 1.34 -0.68 0.68 0 0 Z " fill="#929A79" transform="translate(204,81)"/>
<path d="M0 0 C0.33 0.66 0.66 1.32 1 2 C1.99 2 2.98 2 4 2 C4 3.32 4 4.64 4 6 C2.68 6 1.36 6 0 6 C0 5.01 0 4.02 0 3 C-0.66 2.67 -1.32 2.34 -2 2 C-1.34 1.34 -0.68 0.68 0 0 Z " fill="#5E421C" transform="translate(79,77)"/>
<path d="M0 0 C1.22589844 0.01353516 1.22589844 0.01353516 2.4765625 0.02734375 C3.41628906 0.04474609 3.41628906 0.04474609 4.375 0.0625 C0.68765242 2.52073172 -2.32199971 3.07492616 -6.625 4.0625 C-6.625 3.0725 -6.625 2.0825 -6.625 1.0625 C-4.21954362 -0.14022819 -2.67503047 -0.03821472 0 0 Z " fill="#E47D00" transform="translate(111.625,42.9375)"/>
<path d="M0 0 C1.65 0.33 3.3 0.66 5 1 C5 1.66 5 2.32 5 3 C7.97 3.495 7.97 3.495 11 4 C7.69564916 5.12377697 5.9493138 4.89554742 2.75 3.5625 C2.04359375 3.27503906 1.3371875 2.98757812 0.609375 2.69140625 C0.07828125 2.46324219 -0.4528125 2.23507813 -1 2 C-0.67 1.34 -0.34 0.68 0 0 Z " fill="#AB0000" transform="translate(103,169)"/>
<path d="M0 0 C0.66 0 1.32 0 2 0 C1.34 2.64 0.68 5.28 0 8 C-1.32 8 -2.64 8 -4 8 C-2.66666667 5.33333333 -1.33333333 2.66666667 0 0 Z " fill="#CC0600" transform="translate(199,121)"/>
<path d="M0 0 C1.98 0.99 1.98 0.99 4 2 C4 3.32 4 4.64 4 6 C2.68 6 1.36 6 0 6 C0 4.02 0 2.04 0 0 Z " fill="#FFCB00" transform="translate(107,109)"/>
<path d="M0 0 C0.33 1.32 0.66 2.64 1 4 C-4.2734375 7.22265625 -4.2734375 7.22265625 -6 8 C-6.66 7.67 -7.32 7.34 -8 7 C-7.50628906 6.66226563 -7.01257813 6.32453125 -6.50390625 5.9765625 C-5.86324219 5.53054687 -5.22257812 5.08453125 -4.5625 4.625 C-3.92441406 4.18414062 -3.28632812 3.74328125 -2.62890625 3.2890625 C-0.86259072 2.07839147 -0.86259072 2.07839147 0 0 Z " fill="#EF3100" transform="translate(89,55)"/>
<path d="M0 0 C0.598125 0.226875 1.19625 0.45375 1.8125 0.6875 C0.8225 1.3475 -0.1675 2.0075 -1.1875 2.6875 C-1.88687532 4.00397119 -2.55479133 5.33772151 -3.1875 6.6875 C-3.8475 7.3475 -4.5075 8.0075 -5.1875 8.6875 C-5.55003776 3.24943353 -5.55003776 3.24943353 -3.9375 0.75 C-2.1875 -0.3125 -2.1875 -0.3125 0 0 Z " fill="#404243" transform="translate(151.1875,232.3125)"/>
<path d="M0 0 C0.66 0.66 1.32 1.32 2 2 C4.60280568 1.67958603 4.60280568 1.67958603 7 1 C2.25 5.875 2.25 5.875 0 7 C0 4.69 0 2.38 0 0 Z " fill="#E62E01" transform="translate(172,148)"/>
<path d="M0 0 C-1.39332574 3.36720387 -2.9789286 4.9859524 -6 7 C-6.66 6.67 -7.32 6.34 -8 6 C-3.375 0 -3.375 0 0 0 Z " fill="#E2DE09" transform="translate(81,59)"/>
<path d="M0 0 C1.98 0.66 3.96 1.32 6 2 C6.33 3.65 6.66 5.3 7 7 C5.83040013 6.02433888 4.66438823 5.044375 3.5 4.0625 C2.8503125 3.51722656 2.200625 2.97195312 1.53125 2.41015625 C1.0259375 1.94480469 0.520625 1.47945312 0 1 C0 0.67 0 0.34 0 0 Z " fill="#E1E2C4" transform="translate(183,53)"/>
<path d="M0 0 C5.75 0.75 5.75 0.75 8 3 C5.6875 3.625 5.6875 3.625 3 4 C2.01 3.34 1.02 2.68 0 2 C0 1.34 0 0.68 0 0 Z " fill="#E4E5E1" transform="translate(157,35)"/>
<path d="M0 0 C0.433125 0.639375 0.86625 1.27875 1.3125 1.9375 C2.91239177 4.26746003 2.91239177 4.26746003 6 5 C6 5.66 6 6.32 6 7 C4.33388095 7.042721 2.66617115 7.04063832 1 7 C0 6 0 6 -0.0625 2.9375 C-0.041875 1.968125 -0.02125 0.99875 0 0 Z " fill="#0E0F0F" transform="translate(147,236)"/>
<path d="M0 0 C0.99 0.33 1.98 0.66 3 1 C2.74438677 3.3431213 2.40729228 5.67843403 2 8 C1.01 8.495 1.01 8.495 0 9 C0 6.03 0 3.06 0 0 Z " fill="#435559" transform="translate(54,93)"/>
<path d="M0 0 C1.37553268 3.82092412 0.81309902 7.08234111 0 11 C-0.99 11.495 -0.99 11.495 -2 12 C-1.85831863 10.56208484 -1.71148957 9.1246763 -1.5625 7.6875 C-1.48128906 6.88699219 -1.40007813 6.08648437 -1.31640625 5.26171875 C-1 3 -1 3 0 0 Z " fill="#C17B01" transform="translate(63,83)"/>
<path d="M0 0 C1.093125 0.226875 2.18625 0.45375 3.3125 0.6875 C2.3225 2.1725 2.3225 2.1725 1.3125 3.6875 C-1.3275 3.3575 -3.9675 3.0275 -6.6875 2.6875 C-4.58035839 -0.41123767 -3.86755884 -0.32775922 0 0 Z " fill="#BEC0BB" transform="translate(149.6875,31.3125)"/>
<path d="M0 0 C2.29013653 3.4352048 2.17842973 4.985331 2 9 C1.01 8.34 0.02 7.68 -1 7 C-0.67 4.69 -0.34 2.38 0 0 Z " fill="#D38901" transform="translate(199,86)"/>
<path d="M0 0 C1.2065625 0.0309375 1.2065625 0.0309375 2.4375 0.0625 C0.7875 1.7125 -0.8625 3.3625 -2.5625 5.0625 C-3.125 3.125 -3.125 3.125 -3.5625 1.0625 C-2.5625 0.0625 -2.5625 0.0625 0 0 Z " fill="#142C26" transform="translate(177.5625,76.9375)"/>
<path d="M0 0 C3.94727588 -0.17942163 6.5980513 -0.09350689 10 2 C9.67 2.66 9.34 3.32 9 4 C6.03 3.01 3.06 2.02 0 1 C0 0.67 0 0.34 0 0 Z " fill="#FFFFD9" transform="translate(152,59)"/>
<path d="M0 0 C0 3.52032428 -0.70351351 4.4385343 -3 7 C-3.66 7 -4.32 7 -5 7 C-4.60196439 4.11424181 -4.20990931 3.17810487 -1.9375 1.25 C-1.298125 0.8375 -0.65875 0.425 0 0 Z " fill="#E8E6A3" transform="translate(74,56)"/>
<path d="M0 0 C3.3 0 6.6 0 10 0 C10.33 0.99 10.66 1.98 11 3 C7.37 2.34 3.74 1.68 0 1 C0 0.67 0 0.34 0 0 Z " fill="#FAF193" transform="translate(145,40)"/>
<path d="M0 0 C0.33 0 0.66 0 1 0 C0.67 2.31 0.34 4.62 0 7 C-0.99 7.33 -1.98 7.66 -3 8 C-2.25 2.25 -2.25 2.25 0 0 Z " fill="#2B2D2E" transform="translate(156,235)"/>
<path d="M0 0 C1.65 0.33 3.3 0.66 5 1 C4.67 1.99 4.34 2.98 4 4 C2.35 3.67 0.7 3.34 -1 3 C-0.67 2.01 -0.34 1.02 0 0 Z " fill="#EFEC4F" transform="translate(178,121)"/>
<path d="M0 0 C0.33 0 0.66 0 1 0 C1.1875 2.875 1.1875 2.875 1 6 C-2 8 -2 8 -4.1875 7.625 C-4.785625 7.41875 -5.38375 7.2125 -6 7 C-5.195625 6.5875 -4.39125 6.175 -3.5625 5.75 C-0.85890282 4.26547669 -0.85890282 4.26547669 -0.1875 1.8125 C-0.125625 1.214375 -0.06375 0.61625 0 0 Z " fill="#DC7404" transform="translate(89,59)"/>
<path d="M0 0 C1.875 0.25 1.875 0.25 4 1 C5.25 3.0625 5.25 3.0625 6 5 C4.125 4.75 4.125 4.75 2 4 C0.75 1.9375 0.75 1.9375 0 0 Z " fill="#E1DD28" transform="translate(181,59)"/>
<path d="M0 0 C-0.33 0.99 -0.66 1.98 -1 3 C-2.98 3 -4.96 3 -7 3 C-7 2.34 -7 1.68 -7 1 C-4 0 -4 0 0 0 Z " fill="#EAE656" transform="translate(108,41)"/>
<path d="M0 0 C0 0.33 0 0.66 0 1 C-6.0546875 1.9765625 -6.0546875 1.9765625 -8 2 C-8.66 1.34 -9.32 0.68 -10 0 C-6.30581799 -1.231394 -3.7943739 -0.64432764 0 0 Z " fill="#DBDB6A" transform="translate(116,40)"/>
<path d="M0 0 C-1 1.5625 -1 1.5625 -3 3 C-5.76614782 2.96726452 -8.26030547 2.49404328 -11 2 C-11 1.67 -11 1.34 -11 1 C-7.27569643 0.30710631 -3.78916254 -0.11144596 0 0 Z " fill="#FDFDFB" transform="translate(132,30)"/>
</svg>
